solid OpenSCAD_Model
  facet normal -1 -0 -0
    outer loop
      vertex 45 -30 2
      vertex 45 -30 10
      vertex 45 -15.5 2
    endloop
  endfacet
  facet normal -1 0 -0
    outer loop
      vertex 45 -15.5 6.49
      vertex 45 -30 10
      vertex 45 30 10
    endloop
  endfacet
  facet normal -1 -0 0
    outer loop
      vertex 45 15.5 2
      vertex 45 30 10
      vertex 45 30 2
    endloop
  endfacet
  facet normal -1 -0 0
    outer loop
      vertex 45 15.5 6.49
      vertex 45 30 10
      vertex 45 15.5 2
    endloop
  endfacet
  facet normal -1 0 0
    outer loop
      vertex 45 -15.5 2
      vertex 45 -30 10
      vertex 45 -15.5 6.49
    endloop
  endfacet
  facet normal -1 -0 0
    outer loop
      vertex 45 -15.5 6.49
      vertex 45 30 10
      vertex 45 15.5 6.49
    endloop
  endfacet
  facet normal 0 -1 0
    outer loop
      vertex 45 -30 10
      vertex 45 -30 2
      vertex 55 -30 2
    endloop
  endfacet
  facet normal 0 -1 0
    outer loop
      vertex 55 -30 10
      vertex 45 -30 10
      vertex 55 -30 2
    endloop
  endfacet
  facet normal -0 0 -1
    outer loop
      vertex 52.25 -23.701 2
      vertex 55 -14.502 2
      vertex 55 -30 2
    endloop
  endfacet
  facet normal 0 0 -1
    outer loop
      vertex 47.75 -26.299 2
      vertex 45 -30 2
      vertex 45 -15.5 2
    endloop
  endfacet
  facet normal 0 0 -1
    outer loop
      vertex 50 -27.5981 2
      vertex 45 -30 2
      vertex 47.75 -26.299 2
    endloop
  endfacet
  facet normal 0 0 -1
    outer loop
      vertex 47.75 -23.701 2
      vertex 47.75 -26.299 2
      vertex 45 -15.5 2
    endloop
  endfacet
  facet normal 0 0 -1
    outer loop
      vertex 55 -30 2
      vertex 45 -30 2
      vertex 50 -27.5981 2
    endloop
  endfacet
  facet normal 0 0 -1
    outer loop
      vertex 52.25 -23.701 2
      vertex 55 -30 2
      vertex 52.25 -26.299 2
    endloop
  endfacet
  facet normal -0 0 -1
    outer loop
      vertex 45 -15.5 2
      vertex 55 -14.502 2
      vertex 52.25 -23.701 2
    endloop
  endfacet
  facet normal 0 0 -1
    outer loop
      vertex 45 -15.5 2
      vertex 52.25 -23.701 2
      vertex 50 -22.4019 2
    endloop
  endfacet
  facet normal 0 -0 -1
    outer loop
      vertex 47.75 -23.701 2
      vertex 45 -15.5 2
      vertex 50 -22.4019 2
    endloop
  endfacet
  facet normal 0 0 -1
    outer loop
      vertex 52.25 -26.299 2
      vertex 55 -30 2
      vertex 50 -27.5981 2
    endloop
  endfacet
  facet normal 0 0 -1
    outer loop
      vertex 47.75 23.701 2
      vertex 55 14.502 2
      vertex 45 15.5 2
    endloop
  endfacet
  facet normal -0 0 -1
    outer loop
      vertex 52.25 26.299 2
      vertex 55 30 2
      vertex 52.25 23.701 2
    endloop
  endfacet
  facet normal 0 0 -1
    outer loop
      vertex 45 30 2
      vertex 47.75 23.701 2
      vertex 45 15.5 2
    endloop
  endfacet
  facet normal 0 0 -1
    outer loop
      vertex 52.25 23.701 2
      vertex 55 14.502 2
      vertex 50 22.4019 2
    endloop
  endfacet
  facet normal 0 0 -1
    outer loop
      vertex 55 30 2
      vertex 55 14.502 2
      vertex 52.25 23.701 2
    endloop
  endfacet
  facet normal 0 -0 -1
    outer loop
      vertex 47.75 26.299 2
      vertex 45 30 2
      vertex 50 27.5981 2
    endloop
  endfacet
  facet normal 0 0 -1
    outer loop
      vertex 55 30 2
      vertex 52.25 26.299 2
      vertex 50 27.5981 2
    endloop
  endfacet
  facet normal 0 0 -1
    outer loop
      vertex 55 30 2
      vertex 50 27.5981 2
      vertex 45 30 2
    endloop
  endfacet
  facet normal 0 0 -1
    outer loop
      vertex 47.75 23.701 2
      vertex 45 30 2
      vertex 47.75 26.299 2
    endloop
  endfacet
  facet normal 0 0 -1
    outer loop
      vertex 50 22.4019 2
      vertex 55 14.502 2
      vertex 47.75 23.701 2
    endloop
  endfacet
  facet normal 0 1 0
    outer loop
      vertex 45 30 2
      vertex 45 30 10
      vertex 55 30 2
    endloop
  endfacet
  facet normal 0 1 0
    outer loop
      vertex 55 30 2
      vertex 45 30 10
      vertex 55 30 10
    endloop
  endfacet
  facet normal 0 -0 1
    outer loop
      vertex 50 -27.5981 10
      vertex 45 -30 10
      vertex 55 -30 10
    endloop
  endfacet
  facet normal -0 -0 1
    outer loop
      vertex 47.75 23.701 10
      vertex 45 30 10
      vertex 55 -30 10
    endloop
  endfacet
  facet normal 0 -0 1
    outer loop
      vertex 45 30 10
      vertex 45 -30 10
      vertex 47.75 -26.299 10
    endloop
  endfacet
  facet normal 0 0 1
    outer loop
      vertex 50 27.5981 10
      vertex 52.25 26.299 10
      vertex 55 30 10
    endloop
  endfacet
  facet normal 0 0 1
    outer loop
      vertex 45 30 10
      vertex 47.75 -26.299 10
      vertex 47.75 -23.701 10
    endloop
  endfacet
  facet normal 0 0 1
    outer loop
      vertex 45 30 10
      vertex 47.75 -23.701 10
      vertex 50 -22.4019 10
    endloop
  endfacet
  facet normal 0 0 1
    outer loop
      vertex 45 30 10
      vertex 52.25 -23.701 10
      vertex 55 -30 10
    endloop
  endfacet
  facet normal 0 0 1
    outer loop
      vertex 45 30 10
      vertex 50 -22.4019 10
      vertex 52.25 -23.701 10
    endloop
  endfacet
  facet normal 0 -0 1
    outer loop
      vertex 47.75 -26.299 10
      vertex 45 -30 10
      vertex 50 -27.5981 10
    endloop
  endfacet
  facet normal -0 -0 1
    outer loop
      vertex 50 22.4019 10
      vertex 47.75 23.701 10
      vertex 55 -30 10
    endloop
  endfacet
  facet normal -0 -0 1
    outer loop
      vertex 47.75 26.299 10
      vertex 45 30 10
      vertex 47.75 23.701 10
    endloop
  endfacet
  facet normal -0 0 1
    outer loop
      vertex 50 27.5981 10
      vertex 45 30 10
      vertex 47.75 26.299 10
    endloop
  endfacet
  facet normal 0 0 1
    outer loop
      vertex 55 30 10
      vertex 45 30 10
      vertex 50 27.5981 10
    endloop
  endfacet
  facet normal 0 0 1
    outer loop
      vertex 55 30 10
      vertex 52.25 26.299 10
      vertex 55 -30 10
    endloop
  endfacet
  facet normal 0 0 1
    outer loop
      vertex 52.25 26.299 10
      vertex 52.25 23.701 10
      vertex 55 -30 10
    endloop
  endfacet
  facet normal 0 -0 1
    outer loop
      vertex 52.25 23.701 10
      vertex 50 22.4019 10
      vertex 55 -30 10
    endloop
  endfacet
  facet normal 0 0 1
    outer loop
      vertex 52.25 -23.701 10
      vertex 52.25 -26.299 10
      vertex 55 -30 10
    endloop
  endfacet
  facet normal 0 -0 1
    outer loop
      vertex 52.25 -26.299 10
      vertex 50 -27.5981 10
      vertex 55 -30 10
    endloop
  endfacet
  facet normal 1 0 -0
    outer loop
      vertex 55 -30 10
      vertex 55 -30 2
      vertex 55 -14.502 2
    endloop
  endfacet
  facet normal 1 -0 0
    outer loop
      vertex 55 14.502 4.99299
      vertex 55 -30 10
      vertex 55 -14.502 4.99299
    endloop
  endfacet
  facet normal 1 -0 0
    outer loop
      vertex 55 -14.502 4.99299
      vertex 55 -30 10
      vertex 55 -14.502 2
    endloop
  endfacet
  facet normal 1 0 0
    outer loop
      vertex 55 30 10
      vertex 55 -30 10
      vertex 55 14.502 4.99299
    endloop
  endfacet
  facet normal 1 -0 0
    outer loop
      vertex 55 30 2
      vertex 55 14.502 4.99299
      vertex 55 14.502 2
    endloop
  endfacet
  facet normal 1 0 0
    outer loop
      vertex 55 30 10
      vertex 55 14.502 4.99299
      vertex 55 30 2
    endloop
  endfacet
  facet normal -0.0993071 0.995057 0
    outer loop
      vertex 55 -14.502 4.99299
      vertex 55 -14.502 2
      vertex 45 -15.5 6.49
    endloop
  endfacet
  facet normal -0.0993071 0.995057 0
    outer loop
      vertex 45 -15.5 6.49
      vertex 55 -14.502 2
      vertex 45 -15.5 2
    endloop
  endfacet
  facet normal 1 3.52256e-08 0
    outer loop
      vertex 47.75 -23.701 10
      vertex 47.75 -26.299 10
      vertex 47.75 -26.299 2
    endloop
  endfacet
  facet normal 1 3.52256e-08 0
    outer loop
      vertex 47.75 -23.701 2
      vertex 47.75 -23.701 10
      vertex 47.75 -26.299 2
    endloop
  endfacet
  facet normal 0.5 0.866025 -0
    outer loop
      vertex 50 -27.5981 10
      vertex 50 -27.5981 2
      vertex 47.75 -26.299 10
    endloop
  endfacet
  facet normal 0.5 0.866025 -0
    outer loop
      vertex 47.75 -26.299 10
      vertex 50 -27.5981 2
      vertex 47.75 -26.299 2
    endloop
  endfacet
  facet normal 0.5 -0.866025 0
    outer loop
      vertex 50 -22.4019 2
      vertex 50 -22.4019 10
      vertex 47.75 -23.701 10
    endloop
  endfacet
  facet normal 0.5 -0.866025 0
    outer loop
      vertex 47.75 -23.701 2
      vertex 50 -22.4019 2
      vertex 47.75 -23.701 10
    endloop
  endfacet
  facet normal -0.5 -0.866025 -0
    outer loop
      vertex 52.25 -23.701 2
      vertex 52.25 -23.701 10
      vertex 50 -22.4019 10
    endloop
  endfacet
  facet normal -0.5 -0.866025 -0
    outer loop
      vertex 50 -22.4019 2
      vertex 52.25 -23.701 2
      vertex 50 -22.4019 10
    endloop
  endfacet
  facet normal -1 -3.52256e-08 0
    outer loop
      vertex 52.25 -26.299 10
      vertex 52.25 -23.701 10
      vertex 52.25 -26.299 2
    endloop
  endfacet
  facet normal -1 -3.52256e-08 0
    outer loop
      vertex 52.25 -26.299 2
      vertex 52.25 -23.701 10
      vertex 52.25 -23.701 2
    endloop
  endfacet
  facet normal -0.5 0.866025 0
    outer loop
      vertex 52.25 -26.299 10
      vertex 52.25 -26.299 2
      vertex 50 -27.5981 10
    endloop
  endfacet
  facet normal -0.5 0.866025 0
    outer loop
      vertex 50 -27.5981 10
      vertex 52.25 -26.299 2
      vertex 50 -27.5981 2
    endloop
  endfacet
  facet normal -0.148051 0 -0.98898
    outer loop
      vertex 55 14.502 4.99299
      vertex 55 -14.502 4.99299
      vertex 45 15.5 6.49
    endloop
  endfacet
  facet normal -0.148051 0 -0.98898
    outer loop
      vertex 45 15.5 6.49
      vertex 55 -14.502 4.99299
      vertex 45 -15.5 6.49
    endloop
  endfacet
  facet normal -0.0993071 -0.995057 -0
    outer loop
      vertex 55 14.502 2
      vertex 55 14.502 4.99299
      vertex 45 15.5 6.49
    endloop
  endfacet
  facet normal -0.0993071 -0.995057 -0
    outer loop
      vertex 45 15.5 2
      vertex 55 14.502 2
      vertex 45 15.5 6.49
    endloop
  endfacet
  facet normal 1 3.52256e-08 0
    outer loop
      vertex 47.75 26.299 10
      vertex 47.75 23.701 10
      vertex 47.75 23.701 2
    endloop
  endfacet
  facet normal 1 3.52256e-08 0
    outer loop
      vertex 47.75 26.299 2
      vertex 47.75 26.299 10
      vertex 47.75 23.701 2
    endloop
  endfacet
  facet normal 0.5 0.866025 -0
    outer loop
      vertex 50 22.4019 10
      vertex 50 22.4019 2
      vertex 47.75 23.701 10
    endloop
  endfacet
  facet normal 0.5 0.866025 -0
    outer loop
      vertex 47.75 23.701 10
      vertex 50 22.4019 2
      vertex 47.75 23.701 2
    endloop
  endfacet
  facet normal 0.5 -0.866025 0
    outer loop
      vertex 50 27.5981 2
      vertex 50 27.5981 10
      vertex 47.75 26.299 10
    endloop
  endfacet
  facet normal 0.5 -0.866025 0
    outer loop
      vertex 47.75 26.299 2
      vertex 50 27.5981 2
      vertex 47.75 26.299 10
    endloop
  endfacet
  facet normal -0.5 -0.866025 -0
    outer loop
      vertex 52.25 26.299 2
      vertex 52.25 26.299 10
      vertex 50 27.5981 10
    endloop
  endfacet
  facet normal -0.5 -0.866025 -0
    outer loop
      vertex 50 27.5981 2
      vertex 52.25 26.299 2
      vertex 50 27.5981 10
    endloop
  endfacet
  facet normal -1 -3.52256e-08 0
    outer loop
      vertex 52.25 23.701 10
      vertex 52.25 26.299 10
      vertex 52.25 23.701 2
    endloop
  endfacet
  facet normal -1 -3.52256e-08 0
    outer loop
      vertex 52.25 23.701 2
      vertex 52.25 26.299 10
      vertex 52.25 26.299 2
    endloop
  endfacet
  facet normal -0.5 0.866025 0
    outer loop
      vertex 52.25 23.701 10
      vertex 52.25 23.701 2
      vertex 50 22.4019 10
    endloop
  endfacet
  facet normal -0.5 0.866025 0
    outer loop
      vertex 50 22.4019 10
      vertex 52.25 23.701 2
      vertex 50 22.4019 2
    endloop
  endfacet
  facet normal -1 -0 -0
    outer loop
      vertex -55 -30 0
      vertex -55 -30 10
      vertex -55 -14.501 0
    endloop
  endfacet
  facet normal -1 0 -0
    outer loop
      vertex -55 -14.501 4.9915
      vertex -55 -30 10
      vertex -55 30 10
    endloop
  endfacet
  facet normal -1 -0 0
    outer loop
      vertex -55 14.501 0
      vertex -55 30 10
      vertex -55 30 0
    endloop
  endfacet
  facet normal -1 -0 0
    outer loop
      vertex -55 14.501 4.9915
      vertex -55 30 10
      vertex -55 14.501 0
    endloop
  endfacet
  facet normal -1 0 0
    outer loop
      vertex -55 -14.501 0
      vertex -55 -30 10
      vertex -55 -14.501 4.9915
    endloop
  endfacet
  facet normal -1 -0 0
    outer loop
      vertex -55 -14.501 4.9915
      vertex -55 30 10
      vertex -55 14.501 4.9915
    endloop
  endfacet
  facet normal 0 -1 0
    outer loop
      vertex -55 -30 10
      vertex -55 -30 0
      vertex -45 -30 0
    endloop
  endfacet
  facet normal 0 -1 0
    outer loop
      vertex -45 -30 10
      vertex -55 -30 10
      vertex -45 -30 0
    endloop
  endfacet
  facet normal 0 -0 -1
    outer loop
      vertex -47.75 -23.701 0
      vertex -55 -14.501 0
      vertex -45 -15.499 0
    endloop
  endfacet
  facet normal 0 -0 -1
    outer loop
      vertex -55 -30 0
      vertex -55 -14.501 0
      vertex -52.25 -23.701 0
    endloop
  endfacet
  facet normal -0 -0 -1
    outer loop
      vertex -50 -22.4019 0
      vertex -55 -14.501 0
      vertex -47.75 -23.701 0
    endloop
  endfacet
  facet normal 0 0 -1
    outer loop
      vertex -55 -30 0
      vertex -52.25 -23.701 0
      vertex -52.25 -26.299 0
    endloop
  endfacet
  facet normal 0 0 -1
    outer loop
      vertex -55 -30 0
      vertex -52.25 -26.299 0
      vertex -50 -27.5981 0
    endloop
  endfacet
  facet normal -0 0 -1
    outer loop
      vertex -55 -30 0
      vertex -50 -27.5981 0
      vertex -45 -30 0
    endloop
  endfacet
  facet normal 0 0 -1
    outer loop
      vertex -47.75 -26.299 0
      vertex -45 -30 0
      vertex -50 -27.5981 0
    endloop
  endfacet
  facet normal 0 0 -1
    outer loop
      vertex -47.75 -23.701 0
      vertex -45 -30 0
      vertex -47.75 -26.299 0
    endloop
  endfacet
  facet normal 0 0 -1
    outer loop
      vertex -45 -30 0
      vertex -47.75 -23.701 0
      vertex -45 -15.499 0
    endloop
  endfacet
  facet normal 0 -0 -1
    outer loop
      vertex -52.25 -23.701 0
      vertex -55 -14.501 0
      vertex -50 -22.4019 0
    endloop
  endfacet
  facet normal 0.0993071 0.995057 -0
    outer loop
      vertex -45 -15.499 6.4885
      vertex -45 -15.499 0
      vertex -55 -14.501 4.9915
    endloop
  endfacet
  facet normal 0.0993071 0.995057 -0
    outer loop
      vertex -55 -14.501 4.9915
      vertex -45 -15.499 0
      vertex -55 -14.501 0
    endloop
  endfacet
  facet normal 0.148051 0 -0.98898
    outer loop
      vertex -45 15.499 6.4885
      vertex -45 -15.499 6.4885
      vertex -55 14.501 4.9915
    endloop
  endfacet
  facet normal 0.148051 0 -0.98898
    outer loop
      vertex -55 14.501 4.9915
      vertex -45 -15.499 6.4885
      vertex -55 -14.501 4.9915
    endloop
  endfacet
  facet normal 0.0993071 -0.995057 0
    outer loop
      vertex -45 15.499 0
      vertex -45 15.499 6.4885
      vertex -55 14.501 4.9915
    endloop
  endfacet
  facet normal 0.0993071 -0.995057 0
    outer loop
      vertex -55 14.501 0
      vertex -45 15.499 0
      vertex -55 14.501 4.9915
    endloop
  endfacet
  facet normal 0 -0 -1
    outer loop
      vertex -50 27.5981 0
      vertex -55 30 0
      vertex -45 30 0
    endloop
  endfacet
  facet normal 0 -0 -1
    outer loop
      vertex -55 14.501 0
      vertex -55 30 0
      vertex -52.25 23.701 0
    endloop
  endfacet
  facet normal 0 0 -1
    outer loop
      vertex -55 14.501 0
      vertex -52.25 23.701 0
      vertex -45 15.499 0
    endloop
  endfacet
  facet normal 0 0 -1
    outer loop
      vertex -47.75 23.701 0
      vertex -45 15.499 0
      vertex -50 22.4019 0
    endloop
  endfacet
  facet normal 0 0 -1
    outer loop
      vertex -52.25 23.701 0
      vertex -50 22.4019 0
      vertex -45 15.499 0
    endloop
  endfacet
  facet normal -0 0 -1
    outer loop
      vertex -50 27.5981 0
      vertex -45 30 0
      vertex -47.75 26.299 0
    endloop
  endfacet
  facet normal 0 0 -1
    outer loop
      vertex -45 15.499 0
      vertex -47.75 23.701 0
      vertex -45 30 0
    endloop
  endfacet
  facet normal 0 -0 -1
    outer loop
      vertex -47.75 23.701 0
      vertex -47.75 26.299 0
      vertex -45 30 0
    endloop
  endfacet
  facet normal 0 -0 -1
    outer loop
      vertex -52.25 26.299 0
      vertex -55 30 0
      vertex -50 27.5981 0
    endloop
  endfacet
  facet normal 0 0 -1
    outer loop
      vertex -52.25 23.701 0
      vertex -55 30 0
      vertex -52.25 26.299 0
    endloop
  endfacet
  facet normal 0 1 0
    outer loop
      vertex -55 30 0
      vertex -55 30 10
      vertex -45 30 0
    endloop
  endfacet
  facet normal 0 1 0
    outer loop
      vertex -45 30 0
      vertex -55 30 10
      vertex -45 30 10
    endloop
  endfacet
  facet normal 0 -0 1
    outer loop
      vertex -50 -29.6188 10
      vertex -55 -30 10
      vertex -45 -30 10
    endloop
  endfacet
  facet normal 0 -0 1
    outer loop
      vertex -55 30 10
      vertex -55 -30 10
      vertex -54 -27.3094 10
    endloop
  endfacet
  facet normal -0 -0 1
    outer loop
      vertex -50 20.3812 10
      vertex -54 22.6906 10
      vertex -46 -22.6906 10
    endloop
  endfacet
  facet normal 0 0 1
    outer loop
      vertex -55 30 10
      vertex -54 -27.3094 10
      vertex -54 -22.6906 10
    endloop
  endfacet
  facet normal 0 0 1
    outer loop
      vertex -55 30 10
      vertex -54 -22.6906 10
      vertex -50 -20.3812 10
    endloop
  endfacet
  facet normal 0 0 1
    outer loop
      vertex -45 30 10
      vertex -46 -22.6906 10
      vertex -45 -30 10
    endloop
  endfacet
  facet normal 0 0 1
    outer loop
      vertex -50 29.6188 10
      vertex -46 27.3094 10
      vertex -45 30 10
    endloop
  endfacet
  facet normal 0 -0 1
    outer loop
      vertex -46 -27.3094 10
      vertex -50 -29.6188 10
      vertex -45 -30 10
    endloop
  endfacet
  facet normal 0 0 1
    outer loop
      vertex -54 22.6906 10
      vertex -54 27.3094 10
      vertex -55 30 10
    endloop
  endfacet
  facet normal 0 -0 1
    outer loop
      vertex -54 -27.3094 10
      vertex -55 -30 10
      vertex -50 -29.6188 10
    endloop
  endfacet
  facet normal 0 0 1
    outer loop
      vertex -55 30 10
      vertex -50 -20.3812 10
      vertex -54 22.6906 10
    endloop
  endfacet
  facet normal -0 0 1
    outer loop
      vertex -50 29.6188 10
      vertex -55 30 10
      vertex -54 27.3094 10
    endloop
  endfacet
  facet normal 0 0 1
    outer loop
      vertex -46 22.6906 10
      vertex -50 20.3812 10
      vertex -46 -22.6906 10
    endloop
  endfacet
  facet normal 0 0 1
    outer loop
      vertex -45 30 10
      vertex -55 30 10
      vertex -50 29.6188 10
    endloop
  endfacet
  facet normal 0 0 1
    outer loop
      vertex -45 30 10
      vertex -46 22.6906 10
      vertex -46 -22.6906 10
    endloop
  endfacet
  facet normal 0 0 1
    outer loop
      vertex -45 30 10
      vertex -46 27.3094 10
      vertex -46 22.6906 10
    endloop
  endfacet
  facet normal 0 0 1
    outer loop
      vertex -46 -22.6906 10
      vertex -46 -27.3094 10
      vertex -45 -30 10
    endloop
  endfacet
  facet normal 0 0 1
    outer loop
      vertex -50 -20.3812 10
      vertex -46 -22.6906 10
      vertex -54 22.6906 10
    endloop
  endfacet
  facet normal 1 0 -0
    outer loop
      vertex -45 -30 10
      vertex -45 -30 0
      vertex -45 -15.499 0
    endloop
  endfacet
  facet normal 1 -0 0
    outer loop
      vertex -45 15.499 6.4885
      vertex -45 -30 10
      vertex -45 -15.499 6.4885
    endloop
  endfacet
  facet normal 1 -0 0
    outer loop
      vertex -45 -15.499 6.4885
      vertex -45 -30 10
      vertex -45 -15.499 0
    endloop
  endfacet
  facet normal 1 0 0
    outer loop
      vertex -45 30 10
      vertex -45 -30 10
      vertex -45 15.499 6.4885
    endloop
  endfacet
  facet normal 1 -0 0
    outer loop
      vertex -45 30 0
      vertex -45 15.499 6.4885
      vertex -45 15.499 0
    endloop
  endfacet
  facet normal 1 0 0
    outer loop
      vertex -45 30 10
      vertex -45 15.499 6.4885
      vertex -45 30 0
    endloop
  endfacet
  facet normal 0.5 -0.866025 0
    outer loop
      vertex -50 -22.4019 0
      vertex -50 -22.4019 9
      vertex -52.25 -23.701 9
    endloop
  endfacet
  facet normal 0.5 -0.866025 0
    outer loop
      vertex -52.25 -23.701 0
      vertex -50 -22.4019 0
      vertex -52.25 -23.701 9
    endloop
  endfacet
  facet normal 1 3.52256e-08 0
    outer loop
      vertex -52.25 -23.701 9
      vertex -52.25 -26.299 9
      vertex -52.25 -26.299 0
    endloop
  endfacet
  facet normal 1 3.52256e-08 0
    outer loop
      vertex -52.25 -23.701 0
      vertex -52.25 -23.701 9
      vertex -52.25 -26.299 0
    endloop
  endfacet
  facet normal -0.5 -0.866025 -0
    outer loop
      vertex -47.75 -23.701 0
      vertex -47.75 -23.701 9
      vertex -50 -22.4019 9
    endloop
  endfacet
  facet normal -0.5 -0.866025 -0
    outer loop
      vertex -50 -22.4019 0
      vertex -47.75 -23.701 0
      vertex -50 -22.4019 9
    endloop
  endfacet
  facet normal -1 -3.52256e-08 0
    outer loop
      vertex -47.75 -26.299 9
      vertex -47.75 -23.701 9
      vertex -47.75 -26.299 0
    endloop
  endfacet
  facet normal -1 -3.52256e-08 0
    outer loop
      vertex -47.75 -26.299 0
      vertex -47.75 -23.701 9
      vertex -47.75 -23.701 0
    endloop
  endfacet
  facet normal -0.5 0.866025 0
    outer loop
      vertex -47.75 -26.299 9
      vertex -47.75 -26.299 0
      vertex -50 -27.5981 9
    endloop
  endfacet
  facet normal -0.5 0.866025 0
    outer loop
      vertex -50 -27.5981 9
      vertex -47.75 -26.299 0
      vertex -50 -27.5981 0
    endloop
  endfacet
  facet normal 0.5 0.866025 -0
    outer loop
      vertex -50 -27.5981 9
      vertex -50 -27.5981 0
      vertex -52.25 -26.299 9
    endloop
  endfacet
  facet normal 0.5 0.866025 -0
    outer loop
      vertex -52.25 -26.299 9
      vertex -50 -27.5981 0
      vertex -52.25 -26.299 0
    endloop
  endfacet
  facet normal 1 3.52256e-08 0
    outer loop
      vertex -52.25 26.299 9
      vertex -52.25 23.701 9
      vertex -52.25 23.701 0
    endloop
  endfacet
  facet normal 1 3.52256e-08 0
    outer loop
      vertex -52.25 26.299 0
      vertex -52.25 26.299 9
      vertex -52.25 23.701 0
    endloop
  endfacet
  facet normal 0.5 -0.866025 0
    outer loop
      vertex -50 27.5981 0
      vertex -50 27.5981 9
      vertex -52.25 26.299 9
    endloop
  endfacet
  facet normal 0.5 -0.866025 0
    outer loop
      vertex -52.25 26.299 0
      vertex -50 27.5981 0
      vertex -52.25 26.299 9
    endloop
  endfacet
  facet normal -0.5 -0.866025 -0
    outer loop
      vertex -47.75 26.299 0
      vertex -47.75 26.299 9
      vertex -50 27.5981 9
    endloop
  endfacet
  facet normal -0.5 -0.866025 -0
    outer loop
      vertex -50 27.5981 0
      vertex -47.75 26.299 0
      vertex -50 27.5981 9
    endloop
  endfacet
  facet normal -1 -3.52256e-08 0
    outer loop
      vertex -47.75 23.701 9
      vertex -47.75 26.299 9
      vertex -47.75 23.701 0
    endloop
  endfacet
  facet normal -1 -3.52256e-08 0
    outer loop
      vertex -47.75 23.701 0
      vertex -47.75 26.299 9
      vertex -47.75 26.299 0
    endloop
  endfacet
  facet normal -0.5 0.866025 0
    outer loop
      vertex -47.75 23.701 9
      vertex -47.75 23.701 0
      vertex -50 22.4019 9
    endloop
  endfacet
  facet normal -0.5 0.866025 0
    outer loop
      vertex -50 22.4019 9
      vertex -47.75 23.701 0
      vertex -50 22.4019 0
    endloop
  endfacet
  facet normal 0.5 0.866025 -0
    outer loop
      vertex -50 22.4019 9
      vertex -50 22.4019 0
      vertex -52.25 23.701 9
    endloop
  endfacet
  facet normal 0.5 0.866025 -0
    outer loop
      vertex -52.25 23.701 9
      vertex -50 22.4019 0
      vertex -52.25 23.701 0
    endloop
  endfacet
  facet normal 1 1.43922e-08 0
    outer loop
      vertex -54 -22.6906 10
      vertex -54 -27.3094 10
      vertex -54 -27.3094 9
    endloop
  endfacet
  facet normal 1 1.43922e-08 0
    outer loop
      vertex -54 -22.6906 9
      vertex -54 -22.6906 10
      vertex -54 -27.3094 9
    endloop
  endfacet
  facet normal 0.5 0.866025 -0
    outer loop
      vertex -50 -29.6188 10
      vertex -50 -29.6188 9
      vertex -54 -27.3094 10
    endloop
  endfacet
  facet normal 0.5 0.866025 -0
    outer loop
      vertex -54 -27.3094 10
      vertex -50 -29.6188 9
      vertex -54 -27.3094 9
    endloop
  endfacet
  facet normal -0.5 0.866025 0
    outer loop
      vertex -46 -27.3094 10
      vertex -46 -27.3094 9
      vertex -50 -29.6188 10
    endloop
  endfacet
  facet normal -0.5 0.866025 0
    outer loop
      vertex -50 -29.6188 10
      vertex -46 -27.3094 9
      vertex -50 -29.6188 9
    endloop
  endfacet
  facet normal -1 -1.43922e-08 0
    outer loop
      vertex -46 -27.3094 10
      vertex -46 -22.6906 10
      vertex -46 -27.3094 9
    endloop
  endfacet
  facet normal -1 -1.43922e-08 0
    outer loop
      vertex -46 -27.3094 9
      vertex -46 -22.6906 10
      vertex -46 -22.6906 9
    endloop
  endfacet
  facet normal -0.5 -0.866025 -0
    outer loop
      vertex -46 -22.6906 9
      vertex -46 -22.6906 10
      vertex -50 -20.3812 10
    endloop
  endfacet
  facet normal -0.5 -0.866025 -0
    outer loop
      vertex -50 -20.3812 9
      vertex -46 -22.6906 9
      vertex -50 -20.3812 10
    endloop
  endfacet
  facet normal 0.5 -0.866025 0
    outer loop
      vertex -50 -20.3812 9
      vertex -50 -20.3812 10
      vertex -54 -22.6906 10
    endloop
  endfacet
  facet normal 0.5 -0.866025 0
    outer loop
      vertex -54 -22.6906 9
      vertex -50 -20.3812 9
      vertex -54 -22.6906 10
    endloop
  endfacet
  facet normal 1 1.43922e-08 0
    outer loop
      vertex -54 27.3094 10
      vertex -54 22.6906 10
      vertex -54 22.6906 9
    endloop
  endfacet
  facet normal 1 1.43922e-08 0
    outer loop
      vertex -54 27.3094 9
      vertex -54 27.3094 10
      vertex -54 22.6906 9
    endloop
  endfacet
  facet normal 0.5 0.866025 -0
    outer loop
      vertex -50 20.3812 10
      vertex -50 20.3812 9
      vertex -54 22.6906 10
    endloop
  endfacet
  facet normal 0.5 0.866025 -0
    outer loop
      vertex -54 22.6906 10
      vertex -50 20.3812 9
      vertex -54 22.6906 9
    endloop
  endfacet
  facet normal -0.5 0.866025 0
    outer loop
      vertex -46 22.6906 10
      vertex -46 22.6906 9
      vertex -50 20.3812 10
    endloop
  endfacet
  facet normal -0.5 0.866025 0
    outer loop
      vertex -50 20.3812 10
      vertex -46 22.6906 9
      vertex -50 20.3812 9
    endloop
  endfacet
  facet normal -1 -1.43922e-08 0
    outer loop
      vertex -46 22.6906 10
      vertex -46 27.3094 10
      vertex -46 22.6906 9
    endloop
  endfacet
  facet normal -1 -1.43922e-08 0
    outer loop
      vertex -46 22.6906 9
      vertex -46 27.3094 10
      vertex -46 27.3094 9
    endloop
  endfacet
  facet normal -0.5 -0.866025 -0
    outer loop
      vertex -46 27.3094 9
      vertex -46 27.3094 10
      vertex -50 29.6188 10
    endloop
  endfacet
  facet normal -0.5 -0.866025 -0
    outer loop
      vertex -50 29.6188 9
      vertex -46 27.3094 9
      vertex -50 29.6188 10
    endloop
  endfacet
  facet normal 0.5 -0.866025 0
    outer loop
      vertex -50 29.6188 9
      vertex -50 29.6188 10
      vertex -54 27.3094 10
    endloop
  endfacet
  facet normal 0.5 -0.866025 0
    outer loop
      vertex -54 27.3094 9
      vertex -50 29.6188 9
      vertex -54 27.3094 10
    endloop
  endfacet
  facet normal 0 -0 1
    outer loop
      vertex -50 -27.5981 9
      vertex -50 -29.6188 9
      vertex -46 -27.3094 9
    endloop
  endfacet
  facet normal 0 0 1
    outer loop
      vertex -50 -27.5981 9
      vertex -52.25 -26.299 9
      vertex -54 -27.3094 9
    endloop
  endfacet
  facet normal 0 -0 1
    outer loop
      vertex -46 -22.6906 9
      vertex -47.75 -23.701 9
      vertex -46 -27.3094 9
    endloop
  endfacet
  facet normal 0 0 1
    outer loop
      vertex -54 -22.6906 9
      vertex -52.25 -23.701 9
      vertex -50 -20.3812 9
    endloop
  endfacet
  facet normal 0 0 1
    outer loop
      vertex -54 -22.6906 9
      vertex -54 -27.3094 9
      vertex -52.25 -23.701 9
    endloop
  endfacet
  facet normal 0 -0 1
    outer loop
      vertex -50 -20.3812 9
      vertex -50 -22.4019 9
      vertex -46 -22.6906 9
    endloop
  endfacet
  facet normal 0 -0 1
    outer loop
      vertex -47.75 -26.299 9
      vertex -50 -27.5981 9
      vertex -46 -27.3094 9
    endloop
  endfacet
  facet normal 0 0 1
    outer loop
      vertex -50 -22.4019 9
      vertex -47.75 -23.701 9
      vertex -46 -22.6906 9
    endloop
  endfacet
  facet normal 0 0 1
    outer loop
      vertex -47.75 -23.701 9
      vertex -47.75 -26.299 9
      vertex -46 -27.3094 9
    endloop
  endfacet
  facet normal 0 0 1
    outer loop
      vertex -54 -27.3094 9
      vertex -50 -29.6188 9
      vertex -50 -27.5981 9
    endloop
  endfacet
  facet normal 0 0 1
    outer loop
      vertex -52.25 -23.701 9
      vertex -50 -22.4019 9
      vertex -50 -20.3812 9
    endloop
  endfacet
  facet normal -0 0 1
    outer loop
      vertex -52.25 -26.299 9
      vertex -52.25 -23.701 9
      vertex -54 -27.3094 9
    endloop
  endfacet
  facet normal 0 -0 1
    outer loop
      vertex -50 22.4019 9
      vertex -50 20.3812 9
      vertex -46 22.6906 9
    endloop
  endfacet
  facet normal 0 0 1
    outer loop
      vertex -50 22.4019 9
      vertex -52.25 23.701 9
      vertex -54 22.6906 9
    endloop
  endfacet
  facet normal 0 -0 1
    outer loop
      vertex -46 27.3094 9
      vertex -47.75 26.299 9
      vertex -46 22.6906 9
    endloop
  endfacet
  facet normal 0 0 1
    outer loop
      vertex -54 27.3094 9
      vertex -52.25 26.299 9
      vertex -50 29.6188 9
    endloop
  endfacet
  facet normal 0 0 1
    outer loop
      vertex -54 27.3094 9
      vertex -54 22.6906 9
      vertex -52.25 26.299 9
    endloop
  endfacet
  facet normal 0 -0 1
    outer loop
      vertex -50 29.6188 9
      vertex -50 27.5981 9
      vertex -46 27.3094 9
    endloop
  endfacet
  facet normal 0 -0 1
    outer loop
      vertex -47.75 23.701 9
      vertex -50 22.4019 9
      vertex -46 22.6906 9
    endloop
  endfacet
  facet normal 0 0 1
    outer loop
      vertex -50 27.5981 9
      vertex -47.75 26.299 9
      vertex -46 27.3094 9
    endloop
  endfacet
  facet normal 0 0 1
    outer loop
      vertex -47.75 26.299 9
      vertex -47.75 23.701 9
      vertex -46 22.6906 9
    endloop
  endfacet
  facet normal 0 0 1
    outer loop
      vertex -54 22.6906 9
      vertex -50 20.3812 9
      vertex -50 22.4019 9
    endloop
  endfacet
  facet normal 0 0 1
    outer loop
      vertex -52.25 26.299 9
      vertex -50 27.5981 9
      vertex -50 29.6188 9
    endloop
  endfacet
  facet normal -0 0 1
    outer loop
      vertex -52.25 23.701 9
      vertex -52.25 26.299 9
      vertex -54 22.6906 9
    endloop
  endfacet
endsolid OpenSCAD_Model
