solid OpenSCAD_Model
  facet normal -1 -0 -0
    outer loop
      vertex -50 -14 0
      vertex -50 -14 5
      vertex -50 14 0
    endloop
  endfacet
  facet normal -1 0 0
    outer loop
      vertex -50 14 0
      vertex -50 -14 5
      vertex -50 14 5
    endloop
  endfacet
  facet normal 0 -1 0
    outer loop
      vertex -50 -14 5
      vertex -50 -14 0
      vertex -40 -14 0
    endloop
  endfacet
  facet normal 0 -1 0
    outer loop
      vertex -49.9691 -14 5
      vertex -50 -14 5
      vertex -40 -14 0
    endloop
  endfacet
  facet normal 0 -1 0
    outer loop
      vertex -46.0309 -14 5
      vertex -49.9691 -14 5
      vertex -40 -14 0
    endloop
  endfacet
  facet normal 0 -1 0
    outer loop
      vertex -40 -14 5
      vertex -46.0309 -14 5
      vertex -40 -14 0
    endloop
  endfacet
  facet normal 0 -1 0
    outer loop
      vertex -46.6867 -14 5.29199
      vertex -49.9691 -14 5
      vertex -46.0309 -14 5
    endloop
  endfacet
  facet normal 0 -1 0
    outer loop
      vertex -49.3133 -14 5.29199
      vertex -47.5558 -14 5.47672
      vertex -48.4442 -14 5.47672
    endloop
  endfacet
  facet normal -0 -1 0
    outer loop
      vertex -49.3133 -14 5.29199
      vertex -46.6867 -14 5.29199
      vertex -47.5558 -14 5.47672
    endloop
  endfacet
  facet normal 0 -1 0
    outer loop
      vertex -49.3133 -14 5.29199
      vertex -49.9691 -14 5
      vertex -46.6867 -14 5.29199
    endloop
  endfacet
  facet normal -0 -0 -1
    outer loop
      vertex -50 -14 0
      vertex -50 14 0
      vertex -40 -14 0
    endloop
  endfacet
  facet normal 0 0 -1
    outer loop
      vertex -40 -14 0
      vertex -50 14 0
      vertex -40 14 0
    endloop
  endfacet
  facet normal 0 -0 -1
    outer loop
      vertex -40 14 0
      vertex -40 19 0
      vertex 40 19 0
    endloop
  endfacet
  facet normal 0 0 -1
    outer loop
      vertex 11.4193 5.08421 0
      vertex 40 19 0
      vertex 40 14 0
    endloop
  endfacet
  facet normal 0 0 -1
    outer loop
      vertex 12.2268 2.5989 0
      vertex 40 14 0
      vertex 50 14 0
    endloop
  endfacet
  facet normal -0 0 -1
    outer loop
      vertex 40 -14 0
      vertex 50 14 0
      vertex 50 -14 0
    endloop
  endfacet
  facet normal -0 0 -1
    outer loop
      vertex 8.36413 -9.28931 0
      vertex 50 14 0
      vertex 40 -14 0
    endloop
  endfacet
  facet normal 0 0 -1
    outer loop
      vertex 40 -14 0
      vertex 40 -19 0
      vertex -40 -14 0
    endloop
  endfacet
  facet normal -0 0 -1
    outer loop
      vertex 8.36413 9.28931 0
      vertex 40 19 0
      vertex 10.1127 7.34732 0
    endloop
  endfacet
  facet normal 0 0 -1
    outer loop
      vertex -40 14 0
      vertex -30.7094 1 0
      vertex -40 -14 0
    endloop
  endfacet
  facet normal -0 0 -1
    outer loop
      vertex 3.86271 11.8882 0
      vertex 40 19 0
      vertex 6.25 10.8253 0
    endloop
  endfacet
  facet normal 0 0 -1
    outer loop
      vertex -30.7094 1 0
      vertex -29.5547 -1 0
      vertex -40 -14 0
    endloop
  endfacet
  facet normal 0 0 -1
    outer loop
      vertex -12.2268 2.5989 0
      vertex -27.2453 -1 0
      vertex -26.0906 1 0
    endloop
  endfacet
  facet normal 0 0 -1
    outer loop
      vertex -29.5547 -1 0
      vertex -27.2453 -1 0
      vertex -40 -14 0
    endloop
  endfacet
  facet normal 0 -0 -1
    outer loop
      vertex -12.2268 2.5989 0
      vertex -26.0906 1 0
      vertex -11.4193 5.08421 0
    endloop
  endfacet
  facet normal 0 0 -1
    outer loop
      vertex -40 14 0
      vertex -27.2453 3 0
      vertex -29.5547 3 0
    endloop
  endfacet
  facet normal 0 0 -1
    outer loop
      vertex -40 14 0
      vertex -29.5547 3 0
      vertex -30.7094 1 0
    endloop
  endfacet
  facet normal -0 0 -1
    outer loop
      vertex 6.25 10.8253 0
      vertex 40 19 0
      vertex 8.36413 9.28931 0
    endloop
  endfacet
  facet normal -0 0 -1
    outer loop
      vertex -27.2453 -1 0
      vertex -12.5 0 0
      vertex -40 -14 0
    endloop
  endfacet
  facet normal 0 0 -1
    outer loop
      vertex -11.4193 -5.08421 0
      vertex -40 -14 0
      vertex -12.2268 -2.5989 0
    endloop
  endfacet
  facet normal 0 0 -1
    outer loop
      vertex -10.1127 -7.34732 0
      vertex -40 -14 0
      vertex -11.4193 -5.08421 0
    endloop
  endfacet
  facet normal 0 0 -1
    outer loop
      vertex 3.86271 -11.8882 0
      vertex 40 -14 0
      vertex 1.30661 -12.4315 0
    endloop
  endfacet
  facet normal -0 0 -1
    outer loop
      vertex 12.2268 2.5989 0
      vertex 20.4453 3 0
      vertex 12.5 0 0
    endloop
  endfacet
  facet normal 0 0 -1
    outer loop
      vertex -40 -14 0
      vertex -10.1127 -7.34732 0
      vertex -8.36413 -9.28931 0
    endloop
  endfacet
  facet normal 0 0 -1
    outer loop
      vertex -40 -14 0
      vertex -8.36413 -9.28931 0
      vertex -6.25 -10.8253 0
    endloop
  endfacet
  facet normal 0 0 -1
    outer loop
      vertex -40 -14 0
      vertex -6.25 -10.8253 0
      vertex -3.86271 -11.8882 0
    endloop
  endfacet
  facet normal 0 0 -1
    outer loop
      vertex -40 -14 0
      vertex -3.86271 -11.8882 0
      vertex -1.30661 -12.4315 0
    endloop
  endfacet
  facet normal -0 0 -1
    outer loop
      vertex -40 -14 0
      vertex -1.30661 -12.4315 0
      vertex 40 -14 0
    endloop
  endfacet
  facet normal 0 0 -1
    outer loop
      vertex -1.30661 -12.4315 0
      vertex 1.30661 -12.4315 0
      vertex 40 -14 0
    endloop
  endfacet
  facet normal 0 0 -1
    outer loop
      vertex 6.25 -10.8253 0
      vertex 40 -14 0
      vertex 3.86271 -11.8882 0
    endloop
  endfacet
  facet normal 0 0 -1
    outer loop
      vertex 8.36413 -9.28931 0
      vertex 40 -14 0
      vertex 6.25 -10.8253 0
    endloop
  endfacet
  facet normal -0 0 -1
    outer loop
      vertex 22.7547 -1 0
      vertex 50 14 0
      vertex 8.36413 -9.28931 0
    endloop
  endfacet
  facet normal 0 0 -1
    outer loop
      vertex 12.2268 2.5989 0
      vertex 50 14 0
      vertex 20.4453 3 0
    endloop
  endfacet
  facet normal -0 0 -1
    outer loop
      vertex 11.4193 5.08421 0
      vertex 40 14 0
      vertex 12.2268 2.5989 0
    endloop
  endfacet
  facet normal -0 0 -1
    outer loop
      vertex 10.1127 7.34732 0
      vertex 40 19 0
      vertex 11.4193 5.08421 0
    endloop
  endfacet
  facet normal -0 0 -1
    outer loop
      vertex 20.4453 3 0
      vertex 50 14 0
      vertex 22.7547 3 0
    endloop
  endfacet
  facet normal 0 0 -1
    outer loop
      vertex -12.2268 -2.5989 0
      vertex -40 -14 0
      vertex -12.5 0 0
    endloop
  endfacet
  facet normal -0 0 -1
    outer loop
      vertex 1.30661 12.4315 0
      vertex 40 19 0
      vertex 3.86271 11.8882 0
    endloop
  endfacet
  facet normal -0 0 -1
    outer loop
      vertex -40 14 0
      vertex 40 19 0
      vertex 1.30661 12.4315 0
    endloop
  endfacet
  facet normal 0 0 -1
    outer loop
      vertex -40 14 0
      vertex 1.30661 12.4315 0
      vertex -1.30661 12.4315 0
    endloop
  endfacet
  facet normal 0 -0 -1
    outer loop
      vertex -10.1127 7.34732 0
      vertex -27.2453 3 0
      vertex -8.36413 9.28931 0
    endloop
  endfacet
  facet normal 0 0 -1
    outer loop
      vertex -40 14 0
      vertex -3.86271 11.8882 0
      vertex -27.2453 3 0
    endloop
  endfacet
  facet normal 0 0 -1
    outer loop
      vertex -3.86271 11.8882 0
      vertex -6.25 10.8253 0
      vertex -27.2453 3 0
    endloop
  endfacet
  facet normal 0 0 -1
    outer loop
      vertex -6.25 10.8253 0
      vertex -8.36413 9.28931 0
      vertex -27.2453 3 0
    endloop
  endfacet
  facet normal 0 -0 -1
    outer loop
      vertex -3.86271 11.8882 0
      vertex -40 14 0
      vertex -1.30661 12.4315 0
    endloop
  endfacet
  facet normal 0 -0 -1
    outer loop
      vertex -11.4193 5.08421 0
      vertex -27.2453 3 0
      vertex -10.1127 7.34732 0
    endloop
  endfacet
  facet normal 0 -0 -1
    outer loop
      vertex 19.2906 1 0
      vertex 12.5 0 0
      vertex 20.4453 3 0
    endloop
  endfacet
  facet normal 0 0 -1
    outer loop
      vertex -27.2453 -1 0
      vertex -12.2268 2.5989 0
      vertex -12.5 0 0
    endloop
  endfacet
  facet normal -0 0 -1
    outer loop
      vertex 12.5 0 0
      vertex 19.2906 1 0
      vertex 12.2268 -2.5989 0
    endloop
  endfacet
  facet normal -0 0 -1
    outer loop
      vertex 22.7547 3 0
      vertex 50 14 0
      vertex 23.9094 1 0
    endloop
  endfacet
  facet normal -0 0 -1
    outer loop
      vertex 11.4193 -5.08421 0
      vertex 20.4453 -1 0
      vertex 10.1127 -7.34732 0
    endloop
  endfacet
  facet normal -0 0 -1
    outer loop
      vertex 23.9094 1 0
      vertex 50 14 0
      vertex 22.7547 -1 0
    endloop
  endfacet
  facet normal -0 0 -1
    outer loop
      vertex 10.1127 -7.34732 0
      vertex 22.7547 -1 0
      vertex 8.36413 -9.28931 0
    endloop
  endfacet
  facet normal 0 0 -1
    outer loop
      vertex 22.7547 -1 0
      vertex 10.1127 -7.34732 0
      vertex 20.4453 -1 0
    endloop
  endfacet
  facet normal 0 0 -1
    outer loop
      vertex 20.4453 -1 0
      vertex 12.2268 -2.5989 0
      vertex 19.2906 1 0
    endloop
  endfacet
  facet normal 0 0 -1
    outer loop
      vertex 20.4453 -1 0
      vertex 11.4193 -5.08421 0
      vertex 12.2268 -2.5989 0
    endloop
  endfacet
  facet normal 0 0 -1
    outer loop
      vertex -40 -14 0
      vertex 40 -19 0
      vertex -40 -19 0
    endloop
  endfacet
  facet normal -0 0 -1
    outer loop
      vertex -27.2453 3 0
      vertex -11.4193 5.08421 0
      vertex -26.0906 1 0
    endloop
  endfacet
  facet normal 0 1 0
    outer loop
      vertex -50 14 0
      vertex -50 14 5
      vertex -40 14 0
    endloop
  endfacet
  facet normal 0 1 0
    outer loop
      vertex -40 14 0
      vertex -50 14 5
      vertex -40 14 5
    endloop
  endfacet
  facet normal 0 -0 1
    outer loop
      vertex -50 14 5
      vertex -50 -14 5
      vertex -49.9691 -14 5
    endloop
  endfacet
  facet normal -0 0 4.44062e-16
    outer loop
      vertex -46.0309 14 5
      vertex -50 14 5
      vertex -49.9691 14 5
    endloop
  endfacet
  facet normal -0 -0 1
    outer loop
      vertex -49.9691 14 5
      vertex -50 14 5
      vertex -49.9691 -14 5
    endloop
  endfacet
  facet normal -0 0 1.77332e-17
    outer loop
      vertex 46.0309 14 5
      vertex -50 14 5
      vertex -46.0309 14 5
    endloop
  endfacet
  facet normal -0 0 1
    outer loop
      vertex -40 -14 5
      vertex -46.0309 14 5
      vertex -46.0309 -14 5
    endloop
  endfacet
  facet normal -0 0 1
    outer loop
      vertex -29.5547 -1 5
      vertex -46.0309 14 5
      vertex -40 -14 5
    endloop
  endfacet
  facet normal -0 0 1
    outer loop
      vertex 40 -19 5
      vertex -40 -14 5
      vertex -40 -19 5
    endloop
  endfacet
  facet normal 0 -0 1
    outer loop
      vertex 11.4193 -5.08421 5
      vertex 10.1127 -7.34732 5
      vertex 40 -19 5
    endloop
  endfacet
  facet normal 0 0 1
    outer loop
      vertex 1.30661 12.4315 5
      vertex 3.86271 11.8882 5
      vertex 46.0309 14 5
    endloop
  endfacet
  facet normal -0 0 7.00012e-19
    outer loop
      vertex 49.9691 14 5
      vertex -50 14 5
      vertex 46.0309 14 5
    endloop
  endfacet
  facet normal 0 -0 2.22045e-17
    outer loop
      vertex 40 14 5
      vertex -40 14 5
      vertex 49.9691 14 5
    endloop
  endfacet
  facet normal -0 0 1
    outer loop
      vertex 50 -14 5
      vertex 49.9691 14 5
      vertex 49.9691 -14 5
    endloop
  endfacet
  facet normal 0 0 1
    outer loop
      vertex 50 14 5
      vertex 49.9691 14 5
      vertex 50 -14 5
    endloop
  endfacet
  facet normal 0 -0 2.19454e-18
    outer loop
      vertex -40 14 5
      vertex -50 14 5
      vertex 49.9691 14 5
    endloop
  endfacet
  facet normal 0 0 1.77636e-16
    outer loop
      vertex 50 14 5
      vertex 40 14 5
      vertex 49.9691 14 5
    endloop
  endfacet
  facet normal 0 0 1
    outer loop
      vertex 40 19 5
      vertex -40 14 5
      vertex 40 14 5
    endloop
  endfacet
  facet normal -0 0 1
    outer loop
      vertex -6.25 -10.8253 5
      vertex -29.5547 -1 5
      vertex -40 -14 5
    endloop
  endfacet
  facet normal -0 -0 1
    outer loop
      vertex -30.7094 1 5
      vertex -46.0309 14 5
      vertex -29.5547 -1 5
    endloop
  endfacet
  facet normal -0 0 1
    outer loop
      vertex -29.5547 3 5
      vertex -46.0309 14 5
      vertex -30.7094 1 5
    endloop
  endfacet
  facet normal -0 0 1
    outer loop
      vertex -27.2453 3 5
      vertex -46.0309 14 5
      vertex -29.5547 3 5
    endloop
  endfacet
  facet normal 0 -0 1
    outer loop
      vertex -26.0906 1 5
      vertex -27.2453 -1 5
      vertex -11.4193 -5.08421 5
    endloop
  endfacet
  facet normal 0 0 1
    outer loop
      vertex -12.5 0 5
      vertex -46.0309 14 5
      vertex -27.2453 3 5
    endloop
  endfacet
  facet normal 0 0 1
    outer loop
      vertex -11.4193 -5.08421 5
      vertex -12.2268 -2.5989 5
      vertex -26.0906 1 5
    endloop
  endfacet
  facet normal -0 0 1
    outer loop
      vertex -1.30661 -12.4315 5
      vertex -3.86271 -11.8882 5
      vertex -40 -14 5
    endloop
  endfacet
  facet normal 0 0 1
    outer loop
      vertex 19.2906 1 5
      vertex 20.4453 3 5
      vertex 10.1127 7.34732 5
    endloop
  endfacet
  facet normal 0 0 1
    outer loop
      vertex -12.5 0 5
      vertex -12.2268 2.5989 5
      vertex -46.0309 14 5
    endloop
  endfacet
  facet normal 0 0 1
    outer loop
      vertex -12.2268 2.5989 5
      vertex -11.4193 5.08421 5
      vertex -46.0309 14 5
    endloop
  endfacet
  facet normal 0 0 1
    outer loop
      vertex 6.25 10.8253 5
      vertex 8.36413 9.28931 5
      vertex 46.0309 14 5
    endloop
  endfacet
  facet normal 0 -0 1
    outer loop
      vertex 8.36413 -9.28931 5
      vertex 6.25 -10.8253 5
      vertex 40 -19 5
    endloop
  endfacet
  facet normal -0 0 1
    outer loop
      vertex -10.1127 7.34732 5
      vertex -46.0309 14 5
      vertex -11.4193 5.08421 5
    endloop
  endfacet
  facet normal -0 0 1
    outer loop
      vertex -8.36413 9.28931 5
      vertex -46.0309 14 5
      vertex -10.1127 7.34732 5
    endloop
  endfacet
  facet normal 0 0 1
    outer loop
      vertex 8.36413 9.28931 5
      vertex 10.1127 7.34732 5
      vertex 46.0309 14 5
    endloop
  endfacet
  facet normal -0 0 1
    outer loop
      vertex -6.25 10.8253 5
      vertex -46.0309 14 5
      vertex -8.36413 9.28931 5
    endloop
  endfacet
  facet normal -0 0 1
    outer loop
      vertex -3.86271 11.8882 5
      vertex -46.0309 14 5
      vertex -6.25 10.8253 5
    endloop
  endfacet
  facet normal -0 0 1
    outer loop
      vertex -1.30661 12.4315 5
      vertex -46.0309 14 5
      vertex -3.86271 11.8882 5
    endloop
  endfacet
  facet normal 0 0 1
    outer loop
      vertex 46.0309 14 5
      vertex -46.0309 14 5
      vertex -1.30661 12.4315 5
    endloop
  endfacet
  facet normal 0 0 1
    outer loop
      vertex 3.86271 11.8882 5
      vertex 6.25 10.8253 5
      vertex 46.0309 14 5
    endloop
  endfacet
  facet normal 0 0 1
    outer loop
      vertex 46.0309 14 5
      vertex -1.30661 12.4315 5
      vertex 1.30661 12.4315 5
    endloop
  endfacet
  facet normal 0 0 1
    outer loop
      vertex 12.2268 -2.5989 5
      vertex 40 -14 5
      vertex 46.0309 -14 5
    endloop
  endfacet
  facet normal 0 0 1
    outer loop
      vertex 20.4453 -1 5
      vertex 19.2906 1 5
      vertex 11.4193 5.08421 5
    endloop
  endfacet
  facet normal -0 -0 1
    outer loop
      vertex 20.4453 -1 5
      vertex 12.2268 2.5989 5
      vertex 46.0309 -14 5
    endloop
  endfacet
  facet normal 0 0 1
    outer loop
      vertex 12.2268 2.5989 5
      vertex 12.5 0 5
      vertex 46.0309 -14 5
    endloop
  endfacet
  facet normal 0 -0 1
    outer loop
      vertex 12.5 0 5
      vertex 12.2268 -2.5989 5
      vertex 46.0309 -14 5
    endloop
  endfacet
  facet normal -0 0 1
    outer loop
      vertex 40 -14 5
      vertex 11.4193 -5.08421 5
      vertex 40 -19 5
    endloop
  endfacet
  facet normal 0 -0 1
    outer loop
      vertex 10.1127 -7.34732 5
      vertex 8.36413 -9.28931 5
      vertex 40 -19 5
    endloop
  endfacet
  facet normal 0 0 1
    outer loop
      vertex -12.2268 -2.5989 5
      vertex -12.5 0 5
      vertex -27.2453 3 5
    endloop
  endfacet
  facet normal 0 -0 1
    outer loop
      vertex 22.7547 -1 5
      vertex 20.4453 -1 5
      vertex 46.0309 -14 5
    endloop
  endfacet
  facet normal 0 0 1
    outer loop
      vertex -10.1127 -7.34732 5
      vertex -27.2453 -1 5
      vertex -29.5547 -1 5
    endloop
  endfacet
  facet normal -0 0 1
    outer loop
      vertex -3.86271 -11.8882 5
      vertex -6.25 -10.8253 5
      vertex -40 -14 5
    endloop
  endfacet
  facet normal 0 0 1
    outer loop
      vertex 40 -19 5
      vertex 6.25 -10.8253 5
      vertex 3.86271 -11.8882 5
    endloop
  endfacet
  facet normal 0 0 1
    outer loop
      vertex 40 -19 5
      vertex 1.30661 -12.4315 5
      vertex -40 -14 5
    endloop
  endfacet
  facet normal 0 0 1
    outer loop
      vertex 40 -19 5
      vertex 3.86271 -11.8882 5
      vertex 1.30661 -12.4315 5
    endloop
  endfacet
  facet normal 0 0 1
    outer loop
      vertex 1.30661 -12.4315 5
      vertex -1.30661 -12.4315 5
      vertex -40 -14 5
    endloop
  endfacet
  facet normal -0 -0 1
    outer loop
      vertex -8.36413 -9.28931 5
      vertex -29.5547 -1 5
      vertex -6.25 -10.8253 5
    endloop
  endfacet
  facet normal -0 -0 1
    outer loop
      vertex -10.1127 -7.34732 5
      vertex -29.5547 -1 5
      vertex -8.36413 -9.28931 5
    endloop
  endfacet
  facet normal 0 -0 1
    outer loop
      vertex 23.9094 1 5
      vertex 22.7547 -1 5
      vertex 46.0309 -14 5
    endloop
  endfacet
  facet normal 0 0 1
    outer loop
      vertex -10.1127 -7.34732 5
      vertex -11.4193 -5.08421 5
      vertex -27.2453 -1 5
    endloop
  endfacet
  facet normal 0 0 1
    outer loop
      vertex 11.4193 5.08421 5
      vertex 12.2268 2.5989 5
      vertex 20.4453 -1 5
    endloop
  endfacet
  facet normal 0 0 1
    outer loop
      vertex 10.1127 7.34732 5
      vertex 11.4193 5.08421 5
      vertex 19.2906 1 5
    endloop
  endfacet
  facet normal 0 0 1
    outer loop
      vertex 46.0309 14 5
      vertex 10.1127 7.34732 5
      vertex 20.4453 3 5
    endloop
  endfacet
  facet normal 0 -0 1
    outer loop
      vertex 46.0309 14 5
      vertex 22.7547 3 5
      vertex 46.0309 -14 5
    endloop
  endfacet
  facet normal 0 0 1
    outer loop
      vertex 46.0309 14 5
      vertex 20.4453 3 5
      vertex 22.7547 3 5
    endloop
  endfacet
  facet normal 0 0 1
    outer loop
      vertex 22.7547 3 5
      vertex 23.9094 1 5
      vertex 46.0309 -14 5
    endloop
  endfacet
  facet normal 0 -0 1
    outer loop
      vertex -40 19 5
      vertex -40 14 5
      vertex 40 19 5
    endloop
  endfacet
  facet normal 0 0 1
    outer loop
      vertex -27.2453 3 5
      vertex -26.0906 1 5
      vertex -12.2268 -2.5989 5
    endloop
  endfacet
  facet normal 0 -0 1
    outer loop
      vertex 12.2268 -2.5989 5
      vertex 11.4193 -5.08421 5
      vertex 40 -14 5
    endloop
  endfacet
  facet normal -0.406736 -2.02981e-16 0.913546
    outer loop
      vertex -49.9691 -14 5
      vertex -49.3133 -14 5.29199
      vertex -49.3133 14 5.29199
    endloop
  endfacet
  facet normal -0.406736 -2.06431e-16 0.913546
    outer loop
      vertex -49.9691 14 5
      vertex -49.9691 -14 5
      vertex -49.3133 14 5.29199
    endloop
  endfacet
  facet normal -0.207912 -2.17192e-16 0.978148
    outer loop
      vertex -48.4442 -14 5.47672
      vertex -48.4442 14 5.47672
      vertex -49.3133 14 5.29199
    endloop
  endfacet
  facet normal -0.207912 -2.17192e-16 0.978148
    outer loop
      vertex -49.3133 -14 5.29199
      vertex -48.4442 -14 5.47672
      vertex -49.3133 14 5.29199
    endloop
  endfacet
  facet normal 0 -2.22045e-16 1
    outer loop
      vertex -47.5558 -14 5.47672
      vertex -47.5558 14 5.47672
      vertex -48.4442 14 5.47672
    endloop
  endfacet
  facet normal 0 -2.22045e-16 1
    outer loop
      vertex -48.4442 -14 5.47672
      vertex -47.5558 -14 5.47672
      vertex -48.4442 14 5.47672
    endloop
  endfacet
  facet normal 0.207912 -2.17192e-16 0.978148
    outer loop
      vertex -46.6867 -14 5.29199
      vertex -46.6867 14 5.29199
      vertex -47.5558 14 5.47672
    endloop
  endfacet
  facet normal 0.207912 -2.17192e-16 0.978148
    outer loop
      vertex -47.5558 -14 5.47672
      vertex -46.6867 -14 5.29199
      vertex -47.5558 14 5.47672
    endloop
  endfacet
  facet normal 0.406736 -2.06431e-16 0.913546
    outer loop
      vertex -46.0309 -14 5
      vertex -46.0309 14 5
      vertex -46.6867 14 5.29199
    endloop
  endfacet
  facet normal 0.406736 -2.02848e-16 0.913546
    outer loop
      vertex -46.6867 -14 5.29199
      vertex -46.0309 -14 5
      vertex -46.6867 14 5.29199
    endloop
  endfacet
  facet normal -1 -0 -0
    outer loop
      vertex -40 -19 0
      vertex -40 -19 5
      vertex -40 -14 0
    endloop
  endfacet
  facet normal -1 0 0
    outer loop
      vertex -40 -14 0
      vertex -40 -19 5
      vertex -40 -14 5
    endloop
  endfacet
  facet normal 0 -1 0
    outer loop
      vertex -40 -19 5
      vertex -40 -19 0
      vertex 40 -19 0
    endloop
  endfacet
  facet normal 0 -1 0
    outer loop
      vertex 40 -19 5
      vertex -40 -19 5
      vertex 40 -19 0
    endloop
  endfacet
  facet normal 1 0 -0
    outer loop
      vertex 40 -19 5
      vertex 40 -19 0
      vertex 40 -14 0
    endloop
  endfacet
  facet normal 1 0 0
    outer loop
      vertex 40 -14 5
      vertex 40 -19 5
      vertex 40 -14 0
    endloop
  endfacet
  facet normal 0 -1 0
    outer loop
      vertex 40 -14 5
      vertex 40 -14 0
      vertex 50 -14 0
    endloop
  endfacet
  facet normal 0 -1 0
    outer loop
      vertex 46.0309 -14 5
      vertex 40 -14 5
      vertex 50 -14 0
    endloop
  endfacet
  facet normal 0 -1 0
    outer loop
      vertex 49.9691 -14 5
      vertex 46.0309 -14 5
      vertex 50 -14 0
    endloop
  endfacet
  facet normal 0 -1 0
    outer loop
      vertex 50 -14 5
      vertex 49.9691 -14 5
      vertex 50 -14 0
    endloop
  endfacet
  facet normal 0 -1 0
    outer loop
      vertex 46.6867 -14 5.29199
      vertex 46.0309 -14 5
      vertex 49.3133 -14 5.29199
    endloop
  endfacet
  facet normal 0 -1 0
    outer loop
      vertex 49.3133 -14 5.29199
      vertex 48.4442 -14 5.47672
      vertex 46.6867 -14 5.29199
    endloop
  endfacet
  facet normal 0 -1 0
    outer loop
      vertex 49.3133 -14 5.29199
      vertex 46.0309 -14 5
      vertex 49.9691 -14 5
    endloop
  endfacet
  facet normal 0 -1 0
    outer loop
      vertex 47.5558 -14 5.47672
      vertex 46.6867 -14 5.29199
      vertex 48.4442 -14 5.47672
    endloop
  endfacet
  facet normal 1 0 -0
    outer loop
      vertex 50 -14 5
      vertex 50 -14 0
      vertex 50 14 0
    endloop
  endfacet
  facet normal 1 0 0
    outer loop
      vertex 50 14 5
      vertex 50 -14 5
      vertex 50 14 0
    endloop
  endfacet
  facet normal 0 1 0
    outer loop
      vertex 40 14 0
      vertex 40 14 5
      vertex 50 14 0
    endloop
  endfacet
  facet normal 0 1 0
    outer loop
      vertex 50 14 0
      vertex 40 14 5
      vertex 50 14 5
    endloop
  endfacet
  facet normal 1 0 -0
    outer loop
      vertex 40 14 5
      vertex 40 14 0
      vertex 40 19 0
    endloop
  endfacet
  facet normal 1 0 0
    outer loop
      vertex 40 19 5
      vertex 40 14 5
      vertex 40 19 0
    endloop
  endfacet
  facet normal 0 1 0
    outer loop
      vertex -40 19 0
      vertex -40 19 5
      vertex 40 19 0
    endloop
  endfacet
  facet normal 0 1 0
    outer loop
      vertex 40 19 0
      vertex -40 19 5
      vertex 40 19 5
    endloop
  endfacet
  facet normal -1 -0 -0
    outer loop
      vertex -40 14 0
      vertex -40 14 5
      vertex -40 19 0
    endloop
  endfacet
  facet normal -1 0 0
    outer loop
      vertex -40 19 0
      vertex -40 14 5
      vertex -40 19 5
    endloop
  endfacet
  facet normal 0.866026 -0.5 0
    outer loop
      vertex -30.7094 1 5
      vertex -30.7094 1 0
      vertex -29.5547 3 0
    endloop
  endfacet
  facet normal 0.866026 -0.5 0
    outer loop
      vertex -29.5547 3 5
      vertex -30.7094 1 5
      vertex -29.5547 3 0
    endloop
  endfacet
  facet normal 0.866026 0.5 0
    outer loop
      vertex -29.5547 -1 0
      vertex -30.7094 1 0
      vertex -30.7094 1 5
    endloop
  endfacet
  facet normal 0.866026 0.5 -0
    outer loop
      vertex -29.5547 -1 5
      vertex -29.5547 -1 0
      vertex -30.7094 1 5
    endloop
  endfacet
  facet normal 0 -1 0
    outer loop
      vertex -29.5547 3 5
      vertex -29.5547 3 0
      vertex -27.2453 3 0
    endloop
  endfacet
  facet normal 0 -1 0
    outer loop
      vertex -27.2453 3 5
      vertex -29.5547 3 5
      vertex -27.2453 3 0
    endloop
  endfacet
  facet normal -0.866026 -0.5 -0
    outer loop
      vertex -27.2453 3 0
      vertex -26.0906 1 0
      vertex -27.2453 3 5
    endloop
  endfacet
  facet normal -0.866026 -0.5 0
    outer loop
      vertex -27.2453 3 5
      vertex -26.0906 1 0
      vertex -26.0906 1 5
    endloop
  endfacet
  facet normal -0.866026 0.5 0
    outer loop
      vertex -27.2453 -1 0
      vertex -27.2453 -1 5
      vertex -26.0906 1 0
    endloop
  endfacet
  facet normal -0.866026 0.5 0
    outer loop
      vertex -26.0906 1 0
      vertex -27.2453 -1 5
      vertex -26.0906 1 5
    endloop
  endfacet
  facet normal 0 1 0
    outer loop
      vertex -29.5547 -1 0
      vertex -29.5547 -1 5
      vertex -27.2453 -1 0
    endloop
  endfacet
  facet normal 0 1 0
    outer loop
      vertex -27.2453 -1 0
      vertex -29.5547 -1 5
      vertex -27.2453 -1 5
    endloop
  endfacet
  facet normal 0.994522 -0.104528 0
    outer loop
      vertex -12.2268 2.5989 0
      vertex -12.2268 2.5989 5
      vertex -12.5 0 5
    endloop
  endfacet
  facet normal 0.994522 -0.104528 0
    outer loop
      vertex -12.5 0 0
      vertex -12.2268 2.5989 0
      vertex -12.5 0 5
    endloop
  endfacet
  facet normal 0.994522 0.104528 0
    outer loop
      vertex -12.5 0 5
      vertex -12.2268 -2.5989 5
      vertex -12.2268 -2.5989 0
    endloop
  endfacet
  facet normal 0.994522 0.104528 0
    outer loop
      vertex -12.5 0 0
      vertex -12.5 0 5
      vertex -12.2268 -2.5989 0
    endloop
  endfacet
  facet normal 0.951056 -0.309017 0
    outer loop
      vertex -11.4193 5.08421 0
      vertex -11.4193 5.08421 5
      vertex -12.2268 2.5989 5
    endloop
  endfacet
  facet normal 0.951056 -0.309017 0
    outer loop
      vertex -12.2268 2.5989 0
      vertex -11.4193 5.08421 0
      vertex -12.2268 2.5989 5
    endloop
  endfacet
  facet normal 0.866025 -0.5 0
    outer loop
      vertex -10.1127 7.34732 0
      vertex -10.1127 7.34732 5
      vertex -11.4193 5.08421 5
    endloop
  endfacet
  facet normal 0.866025 -0.5 0
    outer loop
      vertex -11.4193 5.08421 0
      vertex -10.1127 7.34732 0
      vertex -11.4193 5.08421 5
    endloop
  endfacet
  facet normal 0.743145 -0.669131 0
    outer loop
      vertex -8.36413 9.28931 0
      vertex -8.36413 9.28931 5
      vertex -10.1127 7.34732 5
    endloop
  endfacet
  facet normal 0.743145 -0.669131 0
    outer loop
      vertex -10.1127 7.34732 0
      vertex -8.36413 9.28931 0
      vertex -10.1127 7.34732 5
    endloop
  endfacet
  facet normal 0.587785 -0.809017 0
    outer loop
      vertex -6.25 10.8253 0
      vertex -6.25 10.8253 5
      vertex -8.36413 9.28931 5
    endloop
  endfacet
  facet normal 0.587785 -0.809017 0
    outer loop
      vertex -8.36413 9.28931 0
      vertex -6.25 10.8253 0
      vertex -8.36413 9.28931 5
    endloop
  endfacet
  facet normal 0.406736 -0.913546 0
    outer loop
      vertex -3.86271 11.8882 0
      vertex -3.86271 11.8882 5
      vertex -6.25 10.8253 5
    endloop
  endfacet
  facet normal 0.406736 -0.913546 0
    outer loop
      vertex -6.25 10.8253 0
      vertex -3.86271 11.8882 0
      vertex -6.25 10.8253 5
    endloop
  endfacet
  facet normal 0.207912 -0.978148 0
    outer loop
      vertex -1.30661 12.4315 0
      vertex -1.30661 12.4315 5
      vertex -3.86271 11.8882 5
    endloop
  endfacet
  facet normal 0.207912 -0.978148 0
    outer loop
      vertex -3.86271 11.8882 0
      vertex -1.30661 12.4315 0
      vertex -3.86271 11.8882 5
    endloop
  endfacet
  facet normal 0 -1 0
    outer loop
      vertex 1.30661 12.4315 0
      vertex 1.30661 12.4315 5
      vertex -1.30661 12.4315 5
    endloop
  endfacet
  facet normal -0 -1 -0
    outer loop
      vertex -1.30661 12.4315 0
      vertex 1.30661 12.4315 0
      vertex -1.30661 12.4315 5
    endloop
  endfacet
  facet normal -0.207912 -0.978148 -0
    outer loop
      vertex 3.86271 11.8882 0
      vertex 3.86271 11.8882 5
      vertex 1.30661 12.4315 5
    endloop
  endfacet
  facet normal -0.207912 -0.978148 -0
    outer loop
      vertex 1.30661 12.4315 0
      vertex 3.86271 11.8882 0
      vertex 1.30661 12.4315 5
    endloop
  endfacet
  facet normal -0.406736 -0.913546 -0
    outer loop
      vertex 6.25 10.8253 0
      vertex 6.25 10.8253 5
      vertex 3.86271 11.8882 5
    endloop
  endfacet
  facet normal -0.406736 -0.913546 -0
    outer loop
      vertex 3.86271 11.8882 0
      vertex 6.25 10.8253 0
      vertex 3.86271 11.8882 5
    endloop
  endfacet
  facet normal -0.587785 -0.809017 -0
    outer loop
      vertex 8.36413 9.28931 0
      vertex 8.36413 9.28931 5
      vertex 6.25 10.8253 5
    endloop
  endfacet
  facet normal -0.587785 -0.809017 -0
    outer loop
      vertex 6.25 10.8253 0
      vertex 8.36413 9.28931 0
      vertex 6.25 10.8253 5
    endloop
  endfacet
  facet normal -0.743145 -0.669131 0
    outer loop
      vertex 10.1127 7.34732 5
      vertex 8.36413 9.28931 5
      vertex 10.1127 7.34732 0
    endloop
  endfacet
  facet normal -0.743145 -0.669131 0
    outer loop
      vertex 10.1127 7.34732 0
      vertex 8.36413 9.28931 5
      vertex 8.36413 9.28931 0
    endloop
  endfacet
  facet normal -0.866025 -0.5 0
    outer loop
      vertex 11.4193 5.08421 5
      vertex 10.1127 7.34732 5
      vertex 11.4193 5.08421 0
    endloop
  endfacet
  facet normal -0.866025 -0.5 0
    outer loop
      vertex 11.4193 5.08421 0
      vertex 10.1127 7.34732 5
      vertex 10.1127 7.34732 0
    endloop
  endfacet
  facet normal -0.951056 -0.309017 0
    outer loop
      vertex 12.2268 2.5989 5
      vertex 11.4193 5.08421 5
      vertex 12.2268 2.5989 0
    endloop
  endfacet
  facet normal -0.951056 -0.309017 0
    outer loop
      vertex 12.2268 2.5989 0
      vertex 11.4193 5.08421 5
      vertex 11.4193 5.08421 0
    endloop
  endfacet
  facet normal -0.994522 -0.104528 0
    outer loop
      vertex 12.5 0 5
      vertex 12.2268 2.5989 5
      vertex 12.5 0 0
    endloop
  endfacet
  facet normal -0.994522 -0.104528 0
    outer loop
      vertex 12.5 0 0
      vertex 12.2268 2.5989 5
      vertex 12.2268 2.5989 0
    endloop
  endfacet
  facet normal -0.994522 0.104528 0
    outer loop
      vertex 12.5 0 5
      vertex 12.5 0 0
      vertex 12.2268 -2.5989 5
    endloop
  endfacet
  facet normal -0.994522 0.104528 0
    outer loop
      vertex 12.2268 -2.5989 5
      vertex 12.5 0 0
      vertex 12.2268 -2.5989 0
    endloop
  endfacet
  facet normal -0.951056 0.309017 0
    outer loop
      vertex 12.2268 -2.5989 5
      vertex 12.2268 -2.5989 0
      vertex 11.4193 -5.08421 5
    endloop
  endfacet
  facet normal -0.951056 0.309017 0
    outer loop
      vertex 11.4193 -5.08421 5
      vertex 12.2268 -2.5989 0
      vertex 11.4193 -5.08421 0
    endloop
  endfacet
  facet normal -0.866025 0.5 0
    outer loop
      vertex 11.4193 -5.08421 5
      vertex 11.4193 -5.08421 0
      vertex 10.1127 -7.34732 5
    endloop
  endfacet
  facet normal -0.866025 0.5 0
    outer loop
      vertex 10.1127 -7.34732 5
      vertex 11.4193 -5.08421 0
      vertex 10.1127 -7.34732 0
    endloop
  endfacet
  facet normal -0.743145 0.669131 0
    outer loop
      vertex 10.1127 -7.34732 5
      vertex 10.1127 -7.34732 0
      vertex 8.36413 -9.28931 5
    endloop
  endfacet
  facet normal -0.743145 0.669131 0
    outer loop
      vertex 8.36413 -9.28931 5
      vertex 10.1127 -7.34732 0
      vertex 8.36413 -9.28931 0
    endloop
  endfacet
  facet normal -0.587785 0.809017 0
    outer loop
      vertex 8.36413 -9.28931 5
      vertex 8.36413 -9.28931 0
      vertex 6.25 -10.8253 5
    endloop
  endfacet
  facet normal -0.587785 0.809017 0
    outer loop
      vertex 6.25 -10.8253 5
      vertex 8.36413 -9.28931 0
      vertex 6.25 -10.8253 0
    endloop
  endfacet
  facet normal -0.406736 0.913546 0
    outer loop
      vertex 6.25 -10.8253 5
      vertex 6.25 -10.8253 0
      vertex 3.86271 -11.8882 5
    endloop
  endfacet
  facet normal -0.406736 0.913546 0
    outer loop
      vertex 3.86271 -11.8882 5
      vertex 6.25 -10.8253 0
      vertex 3.86271 -11.8882 0
    endloop
  endfacet
  facet normal -0.207912 0.978148 0
    outer loop
      vertex 3.86271 -11.8882 5
      vertex 3.86271 -11.8882 0
      vertex 1.30661 -12.4315 5
    endloop
  endfacet
  facet normal -0.207912 0.978148 0
    outer loop
      vertex 1.30661 -12.4315 5
      vertex 3.86271 -11.8882 0
      vertex 1.30661 -12.4315 0
    endloop
  endfacet
  facet normal 0 1 0
    outer loop
      vertex 1.30661 -12.4315 5
      vertex 1.30661 -12.4315 0
      vertex -1.30661 -12.4315 5
    endloop
  endfacet
  facet normal 0 1 -0
    outer loop
      vertex -1.30661 -12.4315 5
      vertex 1.30661 -12.4315 0
      vertex -1.30661 -12.4315 0
    endloop
  endfacet
  facet normal 0.207912 0.978148 -0
    outer loop
      vertex -1.30661 -12.4315 5
      vertex -1.30661 -12.4315 0
      vertex -3.86271 -11.8882 5
    endloop
  endfacet
  facet normal 0.207912 0.978148 -0
    outer loop
      vertex -3.86271 -11.8882 5
      vertex -1.30661 -12.4315 0
      vertex -3.86271 -11.8882 0
    endloop
  endfacet
  facet normal 0.406736 0.913546 -0
    outer loop
      vertex -3.86271 -11.8882 5
      vertex -3.86271 -11.8882 0
      vertex -6.25 -10.8253 5
    endloop
  endfacet
  facet normal 0.406736 0.913546 -0
    outer loop
      vertex -6.25 -10.8253 5
      vertex -3.86271 -11.8882 0
      vertex -6.25 -10.8253 0
    endloop
  endfacet
  facet normal 0.587785 0.809017 -0
    outer loop
      vertex -6.25 -10.8253 5
      vertex -6.25 -10.8253 0
      vertex -8.36413 -9.28931 5
    endloop
  endfacet
  facet normal 0.587785 0.809017 -0
    outer loop
      vertex -8.36413 -9.28931 5
      vertex -6.25 -10.8253 0
      vertex -8.36413 -9.28931 0
    endloop
  endfacet
  facet normal 0.743145 0.669131 0
    outer loop
      vertex -10.1127 -7.34732 5
      vertex -8.36413 -9.28931 5
      vertex -8.36413 -9.28931 0
    endloop
  endfacet
  facet normal 0.743145 0.669131 0
    outer loop
      vertex -10.1127 -7.34732 0
      vertex -10.1127 -7.34732 5
      vertex -8.36413 -9.28931 0
    endloop
  endfacet
  facet normal 0.866025 0.5 0
    outer loop
      vertex -11.4193 -5.08421 5
      vertex -10.1127 -7.34732 5
      vertex -10.1127 -7.34732 0
    endloop
  endfacet
  facet normal 0.866025 0.5 0
    outer loop
      vertex -11.4193 -5.08421 0
      vertex -11.4193 -5.08421 5
      vertex -10.1127 -7.34732 0
    endloop
  endfacet
  facet normal 0.951056 0.309017 0
    outer loop
      vertex -12.2268 -2.5989 5
      vertex -11.4193 -5.08421 5
      vertex -11.4193 -5.08421 0
    endloop
  endfacet
  facet normal 0.951056 0.309017 0
    outer loop
      vertex -12.2268 -2.5989 0
      vertex -12.2268 -2.5989 5
      vertex -11.4193 -5.08421 0
    endloop
  endfacet
  facet normal 0.866026 -0.5 0
    outer loop
      vertex 20.4453 3 0
      vertex 20.4453 3 5
      vertex 19.2906 1 5
    endloop
  endfacet
  facet normal 0.866026 -0.5 0
    outer loop
      vertex 19.2906 1 0
      vertex 20.4453 3 0
      vertex 19.2906 1 5
    endloop
  endfacet
  facet normal 0.866026 0.5 0
    outer loop
      vertex 19.2906 1 5
      vertex 20.4453 -1 5
      vertex 20.4453 -1 0
    endloop
  endfacet
  facet normal 0.866026 0.5 0
    outer loop
      vertex 19.2906 1 0
      vertex 19.2906 1 5
      vertex 20.4453 -1 0
    endloop
  endfacet
  facet normal 0 -1 0
    outer loop
      vertex 22.7547 3 0
      vertex 22.7547 3 5
      vertex 20.4453 3 5
    endloop
  endfacet
  facet normal -0 -1 -0
    outer loop
      vertex 20.4453 3 0
      vertex 22.7547 3 0
      vertex 20.4453 3 5
    endloop
  endfacet
  facet normal -0.866026 -0.5 0
    outer loop
      vertex 23.9094 1 5
      vertex 22.7547 3 5
      vertex 23.9094 1 0
    endloop
  endfacet
  facet normal -0.866026 -0.5 0
    outer loop
      vertex 23.9094 1 0
      vertex 22.7547 3 5
      vertex 22.7547 3 0
    endloop
  endfacet
  facet normal -0.866026 0.5 0
    outer loop
      vertex 23.9094 1 5
      vertex 23.9094 1 0
      vertex 22.7547 -1 5
    endloop
  endfacet
  facet normal -0.866026 0.5 0
    outer loop
      vertex 22.7547 -1 5
      vertex 23.9094 1 0
      vertex 22.7547 -1 0
    endloop
  endfacet
  facet normal 0 1 0
    outer loop
      vertex 22.7547 -1 5
      vertex 22.7547 -1 0
      vertex 20.4453 -1 5
    endloop
  endfacet
  facet normal 0 1 -0
    outer loop
      vertex 20.4453 -1 5
      vertex 22.7547 -1 0
      vertex 20.4453 -1 0
    endloop
  endfacet
  facet normal 0.406736 -2.02848e-16 0.913546
    outer loop
      vertex 49.3133 14 5.29199
      vertex 49.3133 -14 5.29199
      vertex 49.9691 -14 5
    endloop
  endfacet
  facet normal 0.406736 -2.06431e-16 0.913546
    outer loop
      vertex 49.9691 14 5
      vertex 49.3133 14 5.29199
      vertex 49.9691 -14 5
    endloop
  endfacet
  facet normal 0 1 0
    outer loop
      vertex 46.0309 14 5
      vertex 46.6867 14 5.29199
      vertex 49.9691 14 5
    endloop
  endfacet
  facet normal 0 1 0
    outer loop
      vertex 49.9691 14 5
      vertex 46.6867 14 5.29199
      vertex 47.5558 14 5.47672
    endloop
  endfacet
  facet normal 0 1 0
    outer loop
      vertex 49.9691 14 5
      vertex 47.5558 14 5.47672
      vertex 48.4442 14 5.47672
    endloop
  endfacet
  facet normal 0 1 0
    outer loop
      vertex 49.9691 14 5
      vertex 48.4442 14 5.47672
      vertex 49.3133 14 5.29199
    endloop
  endfacet
  facet normal -0.406736 -2.05095e-16 0.913546
    outer loop
      vertex 46.6867 14 5.29199
      vertex 46.0309 14 5
      vertex 46.0309 -14 5
    endloop
  endfacet
  facet normal -0.406736 -2.02848e-16 0.913546
    outer loop
      vertex 46.6867 -14 5.29199
      vertex 46.6867 14 5.29199
      vertex 46.0309 -14 5
    endloop
  endfacet
  facet normal 0 1 -0
    outer loop
      vertex -48.4442 14 5.47672
      vertex -47.5558 14 5.47672
      vertex -49.3133 14 5.29199
    endloop
  endfacet
  facet normal 0 1 0
    outer loop
      vertex -49.3133 14 5.29199
      vertex -47.5558 14 5.47672
      vertex -46.6867 14 5.29199
    endloop
  endfacet
  facet normal 0 1 0
    outer loop
      vertex -49.3133 14 5.29199
      vertex -46.6867 14 5.29199
      vertex -46.0309 14 5
    endloop
  endfacet
  facet normal 0 1 -0
    outer loop
      vertex -49.3133 14 5.29199
      vertex -46.0309 14 5
      vertex -49.9691 14 5
    endloop
  endfacet
  facet normal -0.207912 -2.17192e-16 0.978148
    outer loop
      vertex 46.6867 14 5.29199
      vertex 46.6867 -14 5.29199
      vertex 47.5558 -14 5.47672
    endloop
  endfacet
  facet normal -0.207912 -2.17192e-16 0.978148
    outer loop
      vertex 47.5558 14 5.47672
      vertex 46.6867 14 5.29199
      vertex 47.5558 -14 5.47672
    endloop
  endfacet
  facet normal 0 -2.22045e-16 1
    outer loop
      vertex 47.5558 14 5.47672
      vertex 47.5558 -14 5.47672
      vertex 48.4442 -14 5.47672
    endloop
  endfacet
  facet normal 0 -2.22045e-16 1
    outer loop
      vertex 48.4442 14 5.47672
      vertex 47.5558 14 5.47672
      vertex 48.4442 -14 5.47672
    endloop
  endfacet
  facet normal 0.207912 -2.17192e-16 0.978148
    outer loop
      vertex 48.4442 14 5.47672
      vertex 48.4442 -14 5.47672
      vertex 49.3133 -14 5.29199
    endloop
  endfacet
  facet normal 0.207912 -2.17192e-16 0.978148
    outer loop
      vertex 49.3133 14 5.29199
      vertex 48.4442 14 5.47672
      vertex 49.3133 -14 5.29199
    endloop
  endfacet
endsolid OpenSCAD_Model
