solid OpenSCAD_Model
  facet normal -1 0 0
    outer loop
      vertex -15 -30 8
      vertex -15 -14.502 8
      vertex -15 -30 -1.83691e-15
    endloop
  endfacet
  facet normal -1 0 0
    outer loop
      vertex -15 -30 -1.83691e-15
      vertex -15 -14.502 8
      vertex -15 -14.502 5.00701
    endloop
  endfacet
  facet normal -1 0 0
    outer loop
      vertex -15 -30 -1.83691e-15
      vertex -15 -14.502 5.00701
      vertex -15 14.502 5.00701
    endloop
  endfacet
  facet normal -1 0 -0
    outer loop
      vertex -15 14.502 5.00701
      vertex -15 14.502 8
      vertex -15 30 8
    endloop
  endfacet
  facet normal -1 -0 0
    outer loop
      vertex -15 14.502 5.00701
      vertex -15 30 8
      vertex -15 30 -1.83691e-15
    endloop
  endfacet
  facet normal -1 0 0
    outer loop
      vertex -15 14.502 5.00701
      vertex -15 30 -1.83691e-15
      vertex -15 -30 -1.83691e-15
    endloop
  endfacet
  facet normal 0 0 1
    outer loop
      vertex -7.75 -23.701 8
      vertex -5 -30 8
      vertex -5 -15.5 8
    endloop
  endfacet
  facet normal -8.88178e-17 1.84889e-16 1
    outer loop
      vertex -10 -27.5981 8
      vertex -15 -30 8
      vertex -5 -30 8
    endloop
  endfacet
  facet normal 0 -0 1
    outer loop
      vertex -15 -14.502 8
      vertex -15 -30 8
      vertex -12.25 -23.701 8
    endloop
  endfacet
  facet normal 0 -0 1
    outer loop
      vertex -7.75 -23.701 8
      vertex -7.75 -26.299 8
      vertex -5 -30 8
    endloop
  endfacet
  facet normal 0 0 1
    outer loop
      vertex -15 -14.502 8
      vertex -12.25 -23.701 8
      vertex -10 -22.4019 8
    endloop
  endfacet
  facet normal -8.59417e-17 2.88185e-17 1
    outer loop
      vertex -15 -14.502 8
      vertex -7.75 -23.701 8
      vertex -5 -15.5 8
    endloop
  endfacet
  facet normal 0 -0 1
    outer loop
      vertex -12.25 -26.299 8
      vertex -15 -30 8
      vertex -10 -27.5981 8
    endloop
  endfacet
  facet normal 0 0 1
    outer loop
      vertex -12.25 -23.701 8
      vertex -15 -30 8
      vertex -12.25 -26.299 8
    endloop
  endfacet
  facet normal -2.76239e-16 -2.0526e-16 1
    outer loop
      vertex -7.75 -26.299 8
      vertex -10 -27.5981 8
      vertex -5 -30 8
    endloop
  endfacet
  facet normal -6.22054e-16 -3.93708e-16 1
    outer loop
      vertex -10 -22.4019 8
      vertex -7.75 -23.701 8
      vertex -15 -14.502 8
    endloop
  endfacet
  facet normal 0 -1 0
    outer loop
      vertex -5 -30 8
      vertex -15 -30 8
      vertex -15 -30 -1.83691e-15
    endloop
  endfacet
  facet normal 0 -1 0
    outer loop
      vertex -5 -30 -6.12303e-16
      vertex -5 -30 8
      vertex -15 -30 -1.83691e-15
    endloop
  endfacet
  facet normal 1.22461e-16 0 -1
    outer loop
      vertex -7.75 -23.701 -9.4907e-16
      vertex -15 30 -1.83691e-15
      vertex -5 -30 -6.12303e-16
    endloop
  endfacet
  facet normal 1.22461e-16 2.56585e-32 -1
    outer loop
      vertex -10 27.5981 -1.22461e-15
      vertex -15 30 -1.83691e-15
      vertex -5 30 -6.12303e-16
    endloop
  endfacet
  facet normal 1.22461e-16 0 -1
    outer loop
      vertex -15 -30 -1.83691e-15
      vertex -15 30 -1.83691e-15
      vertex -12.25 -23.701 -1.50014e-15
    endloop
  endfacet
  facet normal 1.22461e-16 0 -1
    outer loop
      vertex -15 -30 -1.83691e-15
      vertex -12.25 -23.701 -1.50014e-15
      vertex -12.25 -26.299 -1.50014e-15
    endloop
  endfacet
  facet normal 1.22461e-16 0 -1
    outer loop
      vertex -15 -30 -1.83691e-15
      vertex -12.25 -26.299 -1.50014e-15
      vertex -10 -27.5981 -1.22461e-15
    endloop
  endfacet
  facet normal 1.22461e-16 5.1317e-32 -1
    outer loop
      vertex -15 -30 -1.83691e-15
      vertex -10 -27.5981 -1.22461e-15
      vertex -5 -30 -6.12303e-16
    endloop
  endfacet
  facet normal 1.22461e-16 2.37347e-33 -1
    outer loop
      vertex -10 22.4019 -1.22461e-15
      vertex -5 -30 -6.12303e-16
      vertex -12.25 23.701 -1.50014e-15
    endloop
  endfacet
  facet normal 1.22461e-16 4.74694e-33 -1
    outer loop
      vertex -10 -22.4019 -1.22461e-15
      vertex -15 30 -1.83691e-15
      vertex -7.75 -23.701 -9.4907e-16
    endloop
  endfacet
  facet normal 1.22461e-16 -1.17495e-32 -1
    outer loop
      vertex -7.75 -26.299 -9.4907e-16
      vertex -7.75 -23.701 -9.4907e-16
      vertex -5 -30 -6.12303e-16
    endloop
  endfacet
  facet normal 1.22461e-16 2.23232e-33 -1
    outer loop
      vertex -12.25 -23.701 -1.50014e-15
      vertex -15 30 -1.83691e-15
      vertex -10 -22.4019 -1.22461e-15
    endloop
  endfacet
  facet normal 1.22461e-16 -1.17495e-32 -1
    outer loop
      vertex -12.25 23.701 -1.50014e-15
      vertex -15 30 -1.83691e-15
      vertex -12.25 26.299 -1.50014e-15
    endloop
  endfacet
  facet normal 1.22461e-16 1.35935e-32 -1
    outer loop
      vertex -5 -30 -6.12303e-16
      vertex -15 30 -1.83691e-15
      vertex -12.25 23.701 -1.50014e-15
    endloop
  endfacet
  facet normal 1.22461e-16 -1.17495e-32 -1
    outer loop
      vertex -7.75 26.299 -9.4907e-16
      vertex -5 30 -6.12303e-16
      vertex -7.75 23.701 -9.4907e-16
    endloop
  endfacet
  facet normal 1.22461e-16 0 -1
    outer loop
      vertex -5 -30 -6.12303e-16
      vertex -10 22.4019 -1.22461e-15
      vertex -7.75 23.701 -9.4907e-16
    endloop
  endfacet
  facet normal 1.22461e-16 0 -1
    outer loop
      vertex -5 -30 -6.12303e-16
      vertex -7.75 23.701 -9.4907e-16
      vertex -5 30 -6.12303e-16
    endloop
  endfacet
  facet normal 1.22461e-16 -3.88439e-32 -1
    outer loop
      vertex -10 27.5981 -1.22461e-15
      vertex -5 30 -6.12303e-16
      vertex -7.75 26.299 -9.4907e-16
    endloop
  endfacet
  facet normal 1.22461e-16 2.1282e-32 -1
    outer loop
      vertex -12.25 26.299 -1.50014e-15
      vertex -15 30 -1.83691e-15
      vertex -10 27.5981 -1.22461e-15
    endloop
  endfacet
  facet normal 1.22461e-16 1.4188e-32 -1
    outer loop
      vertex -7.75 -26.299 -9.4907e-16
      vertex -5 -30 -6.12303e-16
      vertex -10 -27.5981 -1.22461e-15
    endloop
  endfacet
  facet normal 0 1 -0
    outer loop
      vertex -15 30 8
      vertex -5 30 8
      vertex -15 30 -1.83691e-15
    endloop
  endfacet
  facet normal 0 1 0
    outer loop
      vertex -15 30 -1.83691e-15
      vertex -5 30 8
      vertex -5 30 -6.12303e-16
    endloop
  endfacet
  facet normal -2.76239e-16 2.0526e-16 1
    outer loop
      vertex -10 27.5981 8
      vertex -7.75 26.299 8
      vertex -5 30 8
    endloop
  endfacet
  facet normal 0 0 1
    outer loop
      vertex -7.75 26.299 8
      vertex -5 15.5 8
      vertex -5 30 8
    endloop
  endfacet
  facet normal -3.30719e-16 -1.10899e-16 1
    outer loop
      vertex -7.75 23.701 8
      vertex -10 22.4019 8
      vertex -5 15.5 8
    endloop
  endfacet
  facet normal -8.88178e-17 -1.84889e-16 1
    outer loop
      vertex -15 30 8
      vertex -10 27.5981 8
      vertex -5 30 8
    endloop
  endfacet
  facet normal 0 0 1
    outer loop
      vertex -15 30 8
      vertex -12.25 26.299 8
      vertex -10 27.5981 8
    endloop
  endfacet
  facet normal 0 0 1
    outer loop
      vertex -7.75 23.701 8
      vertex -5 15.5 8
      vertex -7.75 26.299 8
    endloop
  endfacet
  facet normal -9.48063e-17 6.00045e-17 1
    outer loop
      vertex -15 14.502 8
      vertex -5 15.5 8
      vertex -10 22.4019 8
    endloop
  endfacet
  facet normal 0 0 1
    outer loop
      vertex -15 14.502 8
      vertex -12.25 23.701 8
      vertex -15 30 8
    endloop
  endfacet
  facet normal 0 0 1
    outer loop
      vertex -15 14.502 8
      vertex -10 22.4019 8
      vertex -12.25 23.701 8
    endloop
  endfacet
  facet normal 0 0 1
    outer loop
      vertex -12.25 23.701 8
      vertex -12.25 26.299 8
      vertex -15 30 8
    endloop
  endfacet
  facet normal 0.0993071 -0.995057 0
    outer loop
      vertex -15 14.502 5.00701
      vertex -5 15.5 3.51
      vertex -5 15.5 8
    endloop
  endfacet
  facet normal 0.0993071 -0.995057 0
    outer loop
      vertex -15 14.502 8
      vertex -15 14.502 5.00701
      vertex -5 15.5 8
    endloop
  endfacet
  facet normal 0.148051 0 0.98898
    outer loop
      vertex -5 -15.5 3.51
      vertex -5 15.5 3.51
      vertex -15 14.502 5.00701
    endloop
  endfacet
  facet normal 0.148051 0 0.98898
    outer loop
      vertex -15 -14.502 5.00701
      vertex -5 -15.5 3.51
      vertex -15 14.502 5.00701
    endloop
  endfacet
  facet normal 0.0993071 0.995057 1.96442e-17
    outer loop
      vertex -5 -15.5 3.51
      vertex -15 -14.502 5.00701
      vertex -5 -15.5 8
    endloop
  endfacet
  facet normal 0.0993071 0.995057 0
    outer loop
      vertex -5 -15.5 8
      vertex -15 -14.502 5.00701
      vertex -15 -14.502 8
    endloop
  endfacet
  facet normal 1 -0 1.11022e-16
    outer loop
      vertex -5 -15.5 8
      vertex -5 -30 8
      vertex -5 -30 -6.12303e-16
    endloop
  endfacet
  facet normal 1 -4.78843e-17 1.97813e-16
    outer loop
      vertex -5 -15.5 3.51
      vertex -5 -15.5 8
      vertex -5 -30 -6.12303e-16
    endloop
  endfacet
  facet normal 1 -0 1.11022e-16
    outer loop
      vertex -5 30 8
      vertex -5 15.5 8
      vertex -5 30 -6.12303e-16
    endloop
  endfacet
  facet normal 1 4.78843e-17 1.97813e-16
    outer loop
      vertex -5 15.5 8
      vertex -5 15.5 3.51
      vertex -5 30 -6.12303e-16
    endloop
  endfacet
  facet normal 1 -0 0
    outer loop
      vertex -5 30 -6.12303e-16
      vertex -5 -15.5 3.51
      vertex -5 -30 -6.12303e-16
    endloop
  endfacet
  facet normal 1 0 -0
    outer loop
      vertex -5 15.5 3.51
      vertex -5 -15.5 3.51
      vertex -5 30 -6.12303e-16
    endloop
  endfacet
  facet normal 0.5 -0.866025 1.06831e-16
    outer loop
      vertex -12.25 -23.701 -1.50014e-15
      vertex -10 -22.4019 -1.22461e-15
      vertex -10 -22.4019 8
    endloop
  endfacet
  facet normal 0.5 -0.866025 1.11022e-16
    outer loop
      vertex -12.25 -23.701 8
      vertex -12.25 -23.701 -1.50014e-15
      vertex -10 -22.4019 8
    endloop
  endfacet
  facet normal 1 -3.52256e-08 2.22045e-16
    outer loop
      vertex -12.25 -26.299 -1.50014e-15
      vertex -12.25 -23.701 -1.50014e-15
      vertex -12.25 -23.701 8
    endloop
  endfacet
  facet normal 1 -3.52256e-08 2.22045e-16
    outer loop
      vertex -12.25 -26.299 8
      vertex -12.25 -26.299 -1.50014e-15
      vertex -12.25 -23.701 8
    endloop
  endfacet
  facet normal 0.5 0.866025 0
    outer loop
      vertex -10 -27.5981 -1.22461e-15
      vertex -12.25 -26.299 -1.50014e-15
      vertex -10 -27.5981 8
    endloop
  endfacet
  facet normal 0.5 0.866025 1.06831e-16
    outer loop
      vertex -10 -27.5981 8
      vertex -12.25 -26.299 -1.50014e-15
      vertex -12.25 -26.299 8
    endloop
  endfacet
  facet normal -0.5 0.866025 -1.11022e-16
    outer loop
      vertex -7.75 -26.299 -9.4907e-16
      vertex -10 -27.5981 -1.22461e-15
      vertex -7.75 -26.299 8
    endloop
  endfacet
  facet normal -0.5 0.866025 0
    outer loop
      vertex -7.75 -26.299 8
      vertex -10 -27.5981 -1.22461e-15
      vertex -10 -27.5981 8
    endloop
  endfacet
  facet normal -1 3.52256e-08 -1.11022e-16
    outer loop
      vertex -7.75 -23.701 -9.4907e-16
      vertex -7.75 -26.299 -9.4907e-16
      vertex -7.75 -23.701 8
    endloop
  endfacet
  facet normal -1 3.52256e-08 -2.22045e-16
    outer loop
      vertex -7.75 -23.701 8
      vertex -7.75 -26.299 -9.4907e-16
      vertex -7.75 -26.299 8
    endloop
  endfacet
  facet normal -0.5 -0.866025 -6.40988e-17
    outer loop
      vertex -10 -22.4019 -1.22461e-15
      vertex -7.75 -23.701 -9.4907e-16
      vertex -7.75 -23.701 8
    endloop
  endfacet
  facet normal -0.5 -0.866025 -1.11022e-16
    outer loop
      vertex -10 -22.4019 8
      vertex -10 -22.4019 -1.22461e-15
      vertex -7.75 -23.701 8
    endloop
  endfacet
  facet normal 0.5 -0.866025 1.06831e-16
    outer loop
      vertex -12.25 26.299 -1.50014e-15
      vertex -10 27.5981 -1.22461e-15
      vertex -10 27.5981 8
    endloop
  endfacet
  facet normal 0.5 -0.866025 1.11022e-16
    outer loop
      vertex -12.25 26.299 8
      vertex -12.25 26.299 -1.50014e-15
      vertex -10 27.5981 8
    endloop
  endfacet
  facet normal 1 -3.52256e-08 2.22045e-16
    outer loop
      vertex -12.25 23.701 -1.50014e-15
      vertex -12.25 26.299 -1.50014e-15
      vertex -12.25 26.299 8
    endloop
  endfacet
  facet normal 1 -3.52256e-08 2.22045e-16
    outer loop
      vertex -12.25 23.701 8
      vertex -12.25 23.701 -1.50014e-15
      vertex -12.25 26.299 8
    endloop
  endfacet
  facet normal -0.5 -0.866025 -6.40988e-17
    outer loop
      vertex -10 27.5981 -1.22461e-15
      vertex -7.75 26.299 -9.4907e-16
      vertex -7.75 26.299 8
    endloop
  endfacet
  facet normal -0.5 -0.866025 -1.11022e-16
    outer loop
      vertex -10 27.5981 8
      vertex -10 27.5981 -1.22461e-15
      vertex -7.75 26.299 8
    endloop
  endfacet
  facet normal -1 3.52256e-08 -1.11022e-16
    outer loop
      vertex -7.75 26.299 -9.4907e-16
      vertex -7.75 23.701 -9.4907e-16
      vertex -7.75 26.299 8
    endloop
  endfacet
  facet normal -1 3.52256e-08 -2.22045e-16
    outer loop
      vertex -7.75 26.299 8
      vertex -7.75 23.701 -9.4907e-16
      vertex -7.75 23.701 8
    endloop
  endfacet
  facet normal -0.5 0.866025 -1.11022e-16
    outer loop
      vertex -7.75 23.701 -9.4907e-16
      vertex -10 22.4019 -1.22461e-15
      vertex -7.75 23.701 8
    endloop
  endfacet
  facet normal -0.5 0.866025 0
    outer loop
      vertex -7.75 23.701 8
      vertex -10 22.4019 -1.22461e-15
      vertex -10 22.4019 8
    endloop
  endfacet
  facet normal 0.5 0.866025 0
    outer loop
      vertex -10 22.4019 -1.22461e-15
      vertex -12.25 23.701 -1.50014e-15
      vertex -10 22.4019 8
    endloop
  endfacet
  facet normal 0.5 0.866025 1.06831e-16
    outer loop
      vertex -10 22.4019 8
      vertex -12.25 23.701 -1.50014e-15
      vertex -12.25 23.701 8
    endloop
  endfacet
  facet normal -1 -0 -1.77636e-16
    outer loop
      vertex 5 -30 10
      vertex 5 -15.499 10
      vertex 5 -30 6.12303e-16
    endloop
  endfacet
  facet normal -1 -2.8102e-17 -1.36885e-16
    outer loop
      vertex 5 -30 6.12303e-16
      vertex 5 -15.499 10
      vertex 5 -15.499 3.5115
    endloop
  endfacet
  facet normal -1 0 -2.52934e-16
    outer loop
      vertex 5 -30 6.12303e-16
      vertex 5 -15.499 3.5115
      vertex 5 15.499 3.5115
    endloop
  endfacet
  facet normal -1 0 -1.36885e-16
    outer loop
      vertex 5 15.499 3.5115
      vertex 5 15.499 10
      vertex 5 30 10
    endloop
  endfacet
  facet normal -1 1.8234e-17 -1.77636e-16
    outer loop
      vertex 5 15.499 3.5115
      vertex 5 30 10
      vertex 5 30 6.12303e-16
    endloop
  endfacet
  facet normal -1 0 -2.52934e-16
    outer loop
      vertex 5 15.499 3.5115
      vertex 5 30 6.12303e-16
      vertex 5 -30 6.12303e-16
    endloop
  endfacet
  facet normal -1.77636e-16 3.69778e-16 1
    outer loop
      vertex 10 -27.5981 10
      vertex 5 -30 10
      vertex 15 -30 10
    endloop
  endfacet
  facet normal 0 -0 1
    outer loop
      vertex 5 -15.499 10
      vertex 5 -30 10
      vertex 7.75 -26.299 10
    endloop
  endfacet
  facet normal 0 0 1
    outer loop
      vertex 5 -15.499 10
      vertex 7.75 -26.299 10
      vertex 7.75 -23.701 10
    endloop
  endfacet
  facet normal -1.6566e-16 -1.19993e-16 1
    outer loop
      vertex 15 -14.501 10
      vertex 5 -15.499 10
      vertex 10 -22.4019 10
    endloop
  endfacet
  facet normal -6.45948e-16 0 1
    outer loop
      vertex 15 -14.501 10
      vertex 12.25 -23.701 10
      vertex 15 -30 10
    endloop
  endfacet
  facet normal -9.50696e-17 -1.64665e-16 1
    outer loop
      vertex 15 -14.501 10
      vertex 10 -22.4019 10
      vertex 12.25 -23.701 10
    endloop
  endfacet
  facet normal -6.45948e-16 2.27539e-23 1
    outer loop
      vertex 12.25 -23.701 10
      vertex 12.25 -26.299 10
      vertex 15 -30 10
    endloop
  endfacet
  facet normal -1.9392e-16 3.35879e-16 1
    outer loop
      vertex 12.25 -26.299 10
      vertex 10 -27.5981 10
      vertex 15 -30 10
    endloop
  endfacet
  facet normal 0 -0 1
    outer loop
      vertex 7.75 -26.299 10
      vertex 5 -30 10
      vertex 10 -27.5981 10
    endloop
  endfacet
  facet normal 0 0 1
    outer loop
      vertex 7.75 -23.701 10
      vertex 10 -22.4019 10
      vertex 5 -15.499 10
    endloop
  endfacet
  facet normal 0 -1 0
    outer loop
      vertex 15 -30 10
      vertex 5 -30 10
      vertex 5 -30 6.12303e-16
    endloop
  endfacet
  facet normal 0 -1 0
    outer loop
      vertex 15 -30 1.83691e-15
      vertex 15 -30 10
      vertex 5 -30 6.12303e-16
    endloop
  endfacet
  facet normal 1.22461e-16 8.7653e-33 -1
    outer loop
      vertex 10 -20.3812 1.22461e-15
      vertex 6 22.6906 7.34764e-16
      vertex 14 -22.6906 1.71445e-15
    endloop
  endfacet
  facet normal 1.22461e-16 3.23348e-31 -1
    outer loop
      vertex 10 29.6188 1.22461e-15
      vertex 5 30 6.12303e-16
      vertex 15 30 1.83691e-15
    endloop
  endfacet
  facet normal 1.22461e-16 0 -1
    outer loop
      vertex 5 -30 6.12303e-16
      vertex 5 30 6.12303e-16
      vertex 6 -22.6906 7.34764e-16
    endloop
  endfacet
  facet normal 1.22461e-16 2.22779e-32 -1
    outer loop
      vertex 5 -30 6.12303e-16
      vertex 6 -22.6906 7.34764e-16
      vertex 6 -27.3094 7.34764e-16
    endloop
  endfacet
  facet normal 1.22461e-16 -1.17868e-32 -1
    outer loop
      vertex 5 -30 6.12303e-16
      vertex 6 -27.3094 7.34764e-16
      vertex 10 -29.6188 1.22461e-15
    endloop
  endfacet
  facet normal 1.22461e-16 3.23348e-31 -1
    outer loop
      vertex 5 -30 6.12303e-16
      vertex 10 -29.6188 1.22461e-15
      vertex 15 -30 1.83691e-15
    endloop
  endfacet
  facet normal 1.22461e-16 1.97855e-32 -1
    outer loop
      vertex 14 -22.6906 1.71445e-15
      vertex 15 -30 1.83691e-15
      vertex 14 -27.3094 1.71445e-15
    endloop
  endfacet
  facet normal 1.22461e-16 4.38265e-33 -1
    outer loop
      vertex 10 20.3812 1.22461e-15
      vertex 14 -22.6906 1.71445e-15
      vertex 6 22.6906 7.34764e-16
    endloop
  endfacet
  facet normal 1.22461e-16 0 -1
    outer loop
      vertex 15 -30 1.83691e-15
      vertex 14 -22.6906 1.71445e-15
      vertex 15 30 1.83691e-15
    endloop
  endfacet
  facet normal 1.22461e-16 -2.19578e-33 -1
    outer loop
      vertex 6 -22.6906 7.34764e-16
      vertex 5 30 6.12303e-16
      vertex 10 -20.3812 1.22461e-15
    endloop
  endfacet
  facet normal 1.22461e-16 3.53365e-32 -1
    outer loop
      vertex 10 -20.3812 1.22461e-15
      vertex 5 30 6.12303e-16
      vertex 6 22.6906 7.34764e-16
    endloop
  endfacet
  facet normal 1.22461e-16 1.97855e-32 -1
    outer loop
      vertex 6 22.6906 7.34764e-16
      vertex 5 30 6.12303e-16
      vertex 6 27.3094 7.34764e-16
    endloop
  endfacet
  facet normal 1.22461e-16 -7.07207e-32 -1
    outer loop
      vertex 10 29.6188 1.22461e-15
      vertex 15 30 1.83691e-15
      vertex 14 27.3094 1.71445e-15
    endloop
  endfacet
  facet normal 1.22461e-16 -2.01373e-33 -1
    outer loop
      vertex 14 -22.6906 1.71445e-15
      vertex 10 20.3812 1.22461e-15
      vertex 14 22.6906 1.71445e-15
    endloop
  endfacet
  facet normal 1.22461e-16 -2.01373e-33 -1
    outer loop
      vertex 14 -22.6906 1.71445e-15
      vertex 14 22.6906 1.71445e-15
      vertex 15 30 1.83691e-15
    endloop
  endfacet
  facet normal 1.22461e-16 1.97855e-32 -1
    outer loop
      vertex 14 22.6906 1.71445e-15
      vertex 14 27.3094 1.71445e-15
      vertex 15 30 1.83691e-15
    endloop
  endfacet
  facet normal 1.22461e-16 -3.77177e-32 -1
    outer loop
      vertex 6 27.3094 7.34764e-16
      vertex 5 30 6.12303e-16
      vertex 10 29.6188 1.22461e-15
    endloop
  endfacet
  facet normal 1.22461e-16 7.54354e-33 -1
    outer loop
      vertex 14 -27.3094 1.71445e-15
      vertex 15 -30 1.83691e-15
      vertex 10 -29.6188 1.22461e-15
    endloop
  endfacet
  facet normal 0 1 0
    outer loop
      vertex 5 30 10
      vertex 15 30 10
      vertex 5 30 6.12303e-16
    endloop
  endfacet
  facet normal 0 1 0
    outer loop
      vertex 5 30 6.12303e-16
      vertex 15 30 10
      vertex 15 30 1.83691e-15
    endloop
  endfacet
  facet normal -1.71884e-16 5.76303e-17 1
    outer loop
      vertex 7.75 23.701 10
      vertex 5 15.499 10
      vertex 15 14.501 10
    endloop
  endfacet
  facet normal 0 0 1
    outer loop
      vertex 7.75 23.701 10
      vertex 7.75 26.299 10
      vertex 5 30 10
    endloop
  endfacet
  facet normal 0 -0 1
    outer loop
      vertex 5 30 10
      vertex 5 15.499 10
      vertex 7.75 23.701 10
    endloop
  endfacet
  facet normal -0 0 1
    outer loop
      vertex 10 27.5981 10
      vertex 5 30 10
      vertex 7.75 26.299 10
    endloop
  endfacet
  facet normal -9.50696e-17 1.64665e-16 1
    outer loop
      vertex 12.25 23.701 10
      vertex 10 22.4019 10
      vertex 15 14.501 10
    endloop
  endfacet
  facet normal -1.77636e-16 -3.69778e-16 1
    outer loop
      vertex 15 30 10
      vertex 5 30 10
      vertex 10 27.5981 10
    endloop
  endfacet
  facet normal -6.45948e-16 0 1
    outer loop
      vertex 15 30 10
      vertex 12.25 26.299 10
      vertex 15 14.501 10
    endloop
  endfacet
  facet normal -6.45948e-16 2.27539e-23 1
    outer loop
      vertex 12.25 26.299 10
      vertex 12.25 23.701 10
      vertex 15 14.501 10
    endloop
  endfacet
  facet normal -1.9392e-16 -3.35879e-16 1
    outer loop
      vertex 10 27.5981 10
      vertex 12.25 26.299 10
      vertex 15 30 10
    endloop
  endfacet
  facet normal 2.04536e-16 3.54267e-16 1
    outer loop
      vertex 10 22.4019 10
      vertex 7.75 23.701 10
      vertex 15 14.501 10
    endloop
  endfacet
  facet normal -0.0993071 -0.995057 0
    outer loop
      vertex 5 15.499 3.5115
      vertex 15 14.501 5.0085
      vertex 15 14.501 10
    endloop
  endfacet
  facet normal -0.0993071 -0.995057 -1.35936e-17
    outer loop
      vertex 5 15.499 10
      vertex 5 15.499 3.5115
      vertex 15 14.501 10
    endloop
  endfacet
  facet normal -0.148051 0 0.98898
    outer loop
      vertex 15 -14.501 5.0085
      vertex 15 14.501 5.0085
      vertex 5 15.499 3.5115
    endloop
  endfacet
  facet normal -0.148051 0 0.98898
    outer loop
      vertex 5 -15.499 3.5115
      vertex 15 -14.501 5.0085
      vertex 5 15.499 3.5115
    endloop
  endfacet
  facet normal -0.0993071 0.995057 0
    outer loop
      vertex 15 -14.501 5.0085
      vertex 5 -15.499 3.5115
      vertex 15 -14.501 10
    endloop
  endfacet
  facet normal -0.0993071 0.995057 0
    outer loop
      vertex 15 -14.501 10
      vertex 5 -15.499 3.5115
      vertex 5 -15.499 10
    endloop
  endfacet
  facet normal 1 -0 1.77636e-16
    outer loop
      vertex 15 -14.501 10
      vertex 15 -30 10
      vertex 15 -30 1.83691e-15
    endloop
  endfacet
  facet normal 1 1.14611e-16 0
    outer loop
      vertex 15 -14.501 5.0085
      vertex 15 -14.501 10
      vertex 15 -30 1.83691e-15
    endloop
  endfacet
  facet normal 1 -0 1.77636e-16
    outer loop
      vertex 15 30 10
      vertex 15 14.501 10
      vertex 15 30 1.83691e-15
    endloop
  endfacet
  facet normal 1 -1.14611e-16 0
    outer loop
      vertex 15 14.501 10
      vertex 15 14.501 5.0085
      vertex 15 30 1.83691e-15
    endloop
  endfacet
  facet normal 1 -0 3.54668e-16
    outer loop
      vertex 15 30 1.83691e-15
      vertex 15 -14.501 5.0085
      vertex 15 -30 1.83691e-15
    endloop
  endfacet
  facet normal 1 -0 3.54668e-16
    outer loop
      vertex 15 14.501 5.0085
      vertex 15 -14.501 5.0085
      vertex 15 30 1.83691e-15
    endloop
  endfacet
  facet normal 0.5 0.866025 0
    outer loop
      vertex 10 -27.5981 1
      vertex 7.75 -26.299 1
      vertex 10 -27.5981 10
    endloop
  endfacet
  facet normal 0.5 0.866025 4.80741e-17
    outer loop
      vertex 10 -27.5981 10
      vertex 7.75 -26.299 1
      vertex 7.75 -26.299 10
    endloop
  endfacet
  facet normal 1 -3.52256e-08 9.86865e-17
    outer loop
      vertex 7.75 -26.299 1
      vertex 7.75 -23.701 1
      vertex 7.75 -23.701 10
    endloop
  endfacet
  facet normal 1 -3.52256e-08 9.86865e-17
    outer loop
      vertex 7.75 -26.299 10
      vertex 7.75 -26.299 1
      vertex 7.75 -23.701 10
    endloop
  endfacet
  facet normal -0.5 0.866025 -9.86865e-17
    outer loop
      vertex 12.25 -26.299 1
      vertex 10 -27.5981 1
      vertex 12.25 -26.299 10
    endloop
  endfacet
  facet normal -0.5 0.866025 0
    outer loop
      vertex 12.25 -26.299 10
      vertex 10 -27.5981 1
      vertex 10 -27.5981 10
    endloop
  endfacet
  facet normal -1 3.52256e-08 0
    outer loop
      vertex 12.25 -23.701 1
      vertex 12.25 -26.299 1
      vertex 12.25 -23.701 10
    endloop
  endfacet
  facet normal -1 3.52256e-08 -1.97373e-16
    outer loop
      vertex 12.25 -23.701 10
      vertex 12.25 -26.299 1
      vertex 12.25 -26.299 10
    endloop
  endfacet
  facet normal -0.5 -0.866025 0
    outer loop
      vertex 10 -22.4019 1
      vertex 12.25 -23.701 1
      vertex 12.25 -23.701 10
    endloop
  endfacet
  facet normal -0.5 -0.866025 -9.86865e-17
    outer loop
      vertex 10 -22.4019 10
      vertex 10 -22.4019 1
      vertex 12.25 -23.701 10
    endloop
  endfacet
  facet normal 0.5 -0.866025 9.61481e-17
    outer loop
      vertex 7.75 -23.701 1
      vertex 10 -22.4019 1
      vertex 10 -22.4019 10
    endloop
  endfacet
  facet normal 0.5 -0.866025 4.93432e-17
    outer loop
      vertex 7.75 -23.701 10
      vertex 7.75 -23.701 1
      vertex 10 -22.4019 10
    endloop
  endfacet
  facet normal 1 -1.43922e-08 0
    outer loop
      vertex 6 -27.3094 7.34764e-16
      vertex 6 -22.6906 7.34764e-16
      vertex 6 -22.6906 1
    endloop
  endfacet
  facet normal 1 -1.43922e-08 0
    outer loop
      vertex 6 -27.3094 1
      vertex 6 -27.3094 7.34764e-16
      vertex 6 -22.6906 1
    endloop
  endfacet
  facet normal 0.5 -0.866025 0
    outer loop
      vertex 6 -22.6906 7.34764e-16
      vertex 10 -20.3812 1.22461e-15
      vertex 10 -20.3812 1
    endloop
  endfacet
  facet normal 0.5 -0.866025 0
    outer loop
      vertex 6 -22.6906 1
      vertex 6 -22.6906 7.34764e-16
      vertex 10 -20.3812 1
    endloop
  endfacet
  facet normal -0.5 -0.866025 0
    outer loop
      vertex 10 -20.3812 1.22461e-15
      vertex 14 -22.6906 1.71445e-15
      vertex 14 -22.6906 1
    endloop
  endfacet
  facet normal -0.5 -0.866025 0
    outer loop
      vertex 10 -20.3812 1
      vertex 10 -20.3812 1.22461e-15
      vertex 14 -22.6906 1
    endloop
  endfacet
  facet normal -1 1.43922e-08 0
    outer loop
      vertex 14 -22.6906 1.71445e-15
      vertex 14 -27.3094 1.71445e-15
      vertex 14 -22.6906 1
    endloop
  endfacet
  facet normal -1 1.43922e-08 0
    outer loop
      vertex 14 -22.6906 1
      vertex 14 -27.3094 1.71445e-15
      vertex 14 -27.3094 1
    endloop
  endfacet
  facet normal -0.5 0.866025 0
    outer loop
      vertex 14 -27.3094 1.71445e-15
      vertex 10 -29.6188 1.22461e-15
      vertex 14 -27.3094 1
    endloop
  endfacet
  facet normal -0.5 0.866025 0
    outer loop
      vertex 14 -27.3094 1
      vertex 10 -29.6188 1.22461e-15
      vertex 10 -29.6188 1
    endloop
  endfacet
  facet normal 0.5 0.866025 0
    outer loop
      vertex 10 -29.6188 1.22461e-15
      vertex 6 -27.3094 7.34764e-16
      vertex 10 -29.6188 1
    endloop
  endfacet
  facet normal 0.5 0.866025 0
    outer loop
      vertex 10 -29.6188 1
      vertex 6 -27.3094 7.34764e-16
      vertex 6 -27.3094 1
    endloop
  endfacet
  facet normal 0.5 -0.866025 0
    outer loop
      vertex 6 27.3094 7.34764e-16
      vertex 10 29.6188 1.22461e-15
      vertex 10 29.6188 1
    endloop
  endfacet
  facet normal 0.5 -0.866025 0
    outer loop
      vertex 6 27.3094 1
      vertex 6 27.3094 7.34764e-16
      vertex 10 29.6188 1
    endloop
  endfacet
  facet normal 1 -1.43922e-08 0
    outer loop
      vertex 6 22.6906 7.34764e-16
      vertex 6 27.3094 7.34764e-16
      vertex 6 27.3094 1
    endloop
  endfacet
  facet normal 1 -1.43922e-08 0
    outer loop
      vertex 6 22.6906 1
      vertex 6 22.6906 7.34764e-16
      vertex 6 27.3094 1
    endloop
  endfacet
  facet normal -0.5 -0.866025 0
    outer loop
      vertex 10 29.6188 1.22461e-15
      vertex 14 27.3094 1.71445e-15
      vertex 14 27.3094 1
    endloop
  endfacet
  facet normal -0.5 -0.866025 0
    outer loop
      vertex 10 29.6188 1
      vertex 10 29.6188 1.22461e-15
      vertex 14 27.3094 1
    endloop
  endfacet
  facet normal -1 1.43922e-08 0
    outer loop
      vertex 14 27.3094 1.71445e-15
      vertex 14 22.6906 1.71445e-15
      vertex 14 27.3094 1
    endloop
  endfacet
  facet normal -1 1.43922e-08 0
    outer loop
      vertex 14 27.3094 1
      vertex 14 22.6906 1.71445e-15
      vertex 14 22.6906 1
    endloop
  endfacet
  facet normal -0.5 0.866025 0
    outer loop
      vertex 14 22.6906 1.71445e-15
      vertex 10 20.3812 1.22461e-15
      vertex 14 22.6906 1
    endloop
  endfacet
  facet normal -0.5 0.866025 0
    outer loop
      vertex 14 22.6906 1
      vertex 10 20.3812 1.22461e-15
      vertex 10 20.3812 1
    endloop
  endfacet
  facet normal 0.5 0.866025 0
    outer loop
      vertex 10 20.3812 1.22461e-15
      vertex 6 22.6906 7.34764e-16
      vertex 10 20.3812 1
    endloop
  endfacet
  facet normal 0.5 0.866025 0
    outer loop
      vertex 10 20.3812 1
      vertex 6 22.6906 7.34764e-16
      vertex 6 22.6906 1
    endloop
  endfacet
  facet normal 1 -3.52256e-08 9.86865e-17
    outer loop
      vertex 7.75 23.701 1
      vertex 7.75 26.299 1
      vertex 7.75 26.299 10
    endloop
  endfacet
  facet normal 1 -3.52256e-08 9.86865e-17
    outer loop
      vertex 7.75 23.701 10
      vertex 7.75 23.701 1
      vertex 7.75 26.299 10
    endloop
  endfacet
  facet normal 0.5 0.866025 0
    outer loop
      vertex 10 22.4019 1
      vertex 7.75 23.701 1
      vertex 10 22.4019 10
    endloop
  endfacet
  facet normal 0.5 0.866025 4.80741e-17
    outer loop
      vertex 10 22.4019 10
      vertex 7.75 23.701 1
      vertex 7.75 23.701 10
    endloop
  endfacet
  facet normal -0.5 0.866025 -9.86865e-17
    outer loop
      vertex 12.25 23.701 1
      vertex 10 22.4019 1
      vertex 12.25 23.701 10
    endloop
  endfacet
  facet normal -0.5 0.866025 0
    outer loop
      vertex 12.25 23.701 10
      vertex 10 22.4019 1
      vertex 10 22.4019 10
    endloop
  endfacet
  facet normal -1 3.52256e-08 0
    outer loop
      vertex 12.25 26.299 1
      vertex 12.25 23.701 1
      vertex 12.25 26.299 10
    endloop
  endfacet
  facet normal -1 3.52256e-08 -1.97373e-16
    outer loop
      vertex 12.25 26.299 10
      vertex 12.25 23.701 1
      vertex 12.25 23.701 10
    endloop
  endfacet
  facet normal -0.5 -0.866025 0
    outer loop
      vertex 10 27.5981 1
      vertex 12.25 26.299 1
      vertex 12.25 26.299 10
    endloop
  endfacet
  facet normal -0.5 -0.866025 -9.86865e-17
    outer loop
      vertex 10 27.5981 10
      vertex 10 27.5981 1
      vertex 12.25 26.299 10
    endloop
  endfacet
  facet normal 0.5 -0.866025 9.61481e-17
    outer loop
      vertex 7.75 26.299 1
      vertex 10 27.5981 1
      vertex 10 27.5981 10
    endloop
  endfacet
  facet normal 0.5 -0.866025 4.93432e-17
    outer loop
      vertex 7.75 26.299 10
      vertex 7.75 26.299 1
      vertex 10 27.5981 10
    endloop
  endfacet
  facet normal 1.12785e-16 -2.44186e-17 -1
    outer loop
      vertex 7.75 -23.701 1
      vertex 6 -22.6906 1
      vertex 10 -22.4019 1
    endloop
  endfacet
  facet normal 1.26883e-16 -4.46951e-24 -1
    outer loop
      vertex 12.25 -23.701 1
      vertex 14 -22.6906 1
      vertex 12.25 -26.299 1
    endloop
  endfacet
  facet normal 1.11022e-16 1.37595e-24 -1
    outer loop
      vertex 10 -27.5981 1
      vertex 14 -27.3094 1
      vertex 10 -29.6188 1
    endloop
  endfacet
  facet normal 1.18952e-16 1.37354e-17 -1
    outer loop
      vertex 7.75 -26.299 1
      vertex 10 -29.6188 1
      vertex 6 -27.3094 1
    endloop
  endfacet
  facet normal 9.86865e-17 1.22307e-24 -1
    outer loop
      vertex 10 -27.5981 1
      vertex 10 -29.6188 1
      vertex 7.75 -26.299 1
    endloop
  endfacet
  facet normal 1.26883e-16 -1.82612e-24 -1
    outer loop
      vertex 6 -22.6906 1
      vertex 7.75 -26.299 1
      vertex 6 -27.3094 1
    endloop
  endfacet
  facet normal 1.12785e-16 -2.44186e-17 -1
    outer loop
      vertex 12.25 -26.299 1
      vertex 14 -27.3094 1
      vertex 10 -27.5981 1
    endloop
  endfacet
  facet normal 1.26883e-16 -1.82612e-24 -1
    outer loop
      vertex 14 -22.6906 1
      vertex 14 -27.3094 1
      vertex 12.25 -26.299 1
    endloop
  endfacet
  facet normal 1.11022e-16 1.37595e-24 -1
    outer loop
      vertex 10 -20.3812 1
      vertex 14 -22.6906 1
      vertex 10 -22.4019 1
    endloop
  endfacet
  facet normal 1.11022e-16 1.37595e-24 -1
    outer loop
      vertex 10 -20.3812 1
      vertex 10 -22.4019 1
      vertex 6 -22.6906 1
    endloop
  endfacet
  facet normal 1.26883e-16 -4.46951e-24 -1
    outer loop
      vertex 7.75 -26.299 1
      vertex 6 -22.6906 1
      vertex 7.75 -23.701 1
    endloop
  endfacet
  facet normal 1.12785e-16 2.44186e-17 -1
    outer loop
      vertex 10 -22.4019 1
      vertex 14 -22.6906 1
      vertex 12.25 -23.701 1
    endloop
  endfacet
  facet normal 1.12785e-16 -2.44186e-17 -1
    outer loop
      vertex 7.75 26.299 1
      vertex 6 27.3094 1
      vertex 10 27.5981 1
    endloop
  endfacet
  facet normal 1.26883e-16 -4.46951e-24 -1
    outer loop
      vertex 12.25 26.299 1
      vertex 14 27.3094 1
      vertex 12.25 23.701 1
    endloop
  endfacet
  facet normal 1.11022e-16 1.37595e-24 -1
    outer loop
      vertex 10 22.4019 1
      vertex 14 22.6906 1
      vertex 10 20.3812 1
    endloop
  endfacet
  facet normal 1.18952e-16 1.37354e-17 -1
    outer loop
      vertex 7.75 23.701 1
      vertex 10 20.3812 1
      vertex 6 22.6906 1
    endloop
  endfacet
  facet normal 9.86865e-17 1.22307e-24 -1
    outer loop
      vertex 10 22.4019 1
      vertex 10 20.3812 1
      vertex 7.75 23.701 1
    endloop
  endfacet
  facet normal 1.26883e-16 -1.82612e-24 -1
    outer loop
      vertex 6 27.3094 1
      vertex 7.75 23.701 1
      vertex 6 22.6906 1
    endloop
  endfacet
  facet normal 1.12785e-16 -2.44186e-17 -1
    outer loop
      vertex 12.25 23.701 1
      vertex 14 22.6906 1
      vertex 10 22.4019 1
    endloop
  endfacet
  facet normal 1.26883e-16 -1.82612e-24 -1
    outer loop
      vertex 14 27.3094 1
      vertex 14 22.6906 1
      vertex 12.25 23.701 1
    endloop
  endfacet
  facet normal 1.11022e-16 1.37595e-24 -1
    outer loop
      vertex 10 29.6188 1
      vertex 14 27.3094 1
      vertex 10 27.5981 1
    endloop
  endfacet
  facet normal 1.11022e-16 1.37595e-24 -1
    outer loop
      vertex 10 29.6188 1
      vertex 10 27.5981 1
      vertex 6 27.3094 1
    endloop
  endfacet
  facet normal 1.26883e-16 -4.46951e-24 -1
    outer loop
      vertex 7.75 23.701 1
      vertex 6 27.3094 1
      vertex 7.75 26.299 1
    endloop
  endfacet
  facet normal 1.12785e-16 2.44186e-17 -1
    outer loop
      vertex 10 27.5981 1
      vertex 14 27.3094 1
      vertex 12.25 26.299 1
    endloop
  endfacet
endsolid OpenSCAD_Model
